<?xml version="1.0" standalone="no"?>
<!DOCTYPE svg PUBLIC "-//W3C//DTD SVG 1.1//EN" "http://www.w3.org/Graphics/SVG/1.1/DTD/svg11.dtd" >
<svg xmlns="http://www.w3.org/2000/svg" xmlns:xlink="http://www.w3.org/1999/xlink" version="1.1">
<metadata>
Created by FontForge 20200427 at Sat Dec 13 10:24:43 2008
 By www
(c) Inter IKEA Systems B.V.. SWF-X by Digidea.
</metadata>
<defs>
<font id="IKEASans-Regular" horiz-adv-x="575" >
  <font-face 
    font-family="IKEA Sans"
    font-weight="400"
    font-stretch="normal"
    units-per-em="1024"
    panose-1="0 11 6 0 5 3 2 2 2 4"
    ascent="819"
    descent="-205"
    x-height="468"
    cap-height="712"
    bbox="-180 -256 1210 1124"
    underline-thickness="0"
    underline-position="-263"
    unicode-range="U+0020-215E"
  />
<missing-glyph horiz-adv-x="1024" 
d="M896 0h-768v768h768v-768zM192 65v-1h640v640h-640v-640v1z" />
    <glyph glyph-name=".notdef" horiz-adv-x="1024" 
d="M896 0h-768v768h768v-768zM192 65v-1h640v640h-640v-640v1z" />
    <glyph glyph-name=".null" horiz-adv-x="0" 
 />
    <glyph glyph-name="nonmarkingreturn" horiz-adv-x="341" 
 />
    <glyph glyph-name="space" unicode=" " horiz-adv-x="262" 
d="M0 0v1v-1z" />
    <glyph glyph-name="exclam" unicode="!" horiz-adv-x="256" 
d="M78 728h100l-12 -552h-75zM128 107v-1q24 0 42 -18t18 -42t-18 -42t-42 -18t-42 18t-18 42t18 42t42 18v1z" />
    <glyph glyph-name="quotedbl" unicode="&#x22;" horiz-adv-x="439" 
d="M361 712h1l-16 -274h-62l-14 274h91zM167 713l1 -1l-16 -274h-62l-14 274h91v1z" />
    <glyph glyph-name="numbersign" unicode="#" 
d="M559 430h2h-108l-32 -148h139v-76h-156l-44 -206h-77l45 206h-150l-43 -206h-76l43 206h-90v76h106l32 148h-139v77h156l43 206h77l-46 -206h150l43 206h77l-43 -206h91v-77zM377 431v-1h-150l-31 -148h150l31 148v1z" />
    <glyph glyph-name="dollar" unicode="$" 
d="M324 399l-2 -3q108 -44 150 -90t42 -119q0 -75 -50 -130q-51 -54 -141 -66v-129h-68v128q-119 12 -210 89l54 68q73 -62 157 -76v258q-102 41 -144 90t-42 125q0 69 50 122q49 52 136 64v76h68v-76q91 -6 174 -58l-42 -74q-68 44 -132 51v-250zM255 422l-1 1v220
q-46 -8 -71 -36q-26 -29 -26 -66q0 -42 24 -69q24 -26 74 -50zM323 69l-1 -1q47 10 76 42q27 31 27 76q0 36 -24 62q-25 26 -78 50v-230v1z" />
    <glyph glyph-name="percent" unicode="%" horiz-adv-x="845" 
d="M660 697v-1l-420 -711l-56 34l418 710zM204 728q74 0 122 -48t48 -120t-48 -120t-122 -48t-122 48t-48 120t48 120t122 48zM205 454h-1q44 0 70 29q26 31 26 77t-26 75t-69 29q-44 0 -70 -29t-26 -75q0 -45 26 -76q26 -30 70 -30zM641 322q74 0 122 -48t48 -120t-48 -120
t-122 -48t-122 48t-48 120t48 120t122 48zM642 49l-1 -1q44 0 70 29q26 31 26 77t-26 75t-70 29t-70 -29t-26 -75q0 -45 26 -76q25 -30 71 -30v1z" />
    <glyph glyph-name="ampersand" unicode="&#x26;" horiz-adv-x="641" 
d="M623 3l3 -3h-110l-64 81q-116 -96 -215 -96q-87 0 -143 49q-57 50 -57 133q0 62 38 109q39 50 131 110q-82 97 -82 184q0 66 50 113t125 47t124 -44q48 -43 48 -116q0 -42 -36 -90q-40 -51 -110 -104l140 -174q53 48 84 84l54 -57q-37 -41 -90 -89zM278 435v-1
q55 41 83 74q24 30 24 60q0 42 -24 64q-25 23 -64 23q-36 0 -60 -24q-25 -24 -25 -62q0 -51 66 -134zM401 145l-1 -3l-144 178q-71 -49 -95 -82q-26 -35 -26 -70q0 -46 30 -75q29 -28 78 -28q64 0 158 79v1z" />
    <glyph glyph-name="quotesingle" unicode="'" horiz-adv-x="245" 
d="M167 713l1 -1l-16 -274h-62l-14 274h91v1z" />
    <glyph glyph-name="parenleft" unicode="(" horiz-adv-x="296" 
d="M268 -177v-1l-69 -44q-150 235 -150 485q0 245 150 481l69 -44q-134 -223 -134 -436q0 -219 134 -442v1z" />
    <glyph glyph-name="parenright" unicode=")" horiz-adv-x="296" 
d="M28 701v-1l69 44q150 -235 150 -481q0 -250 -150 -485l-69 44q134 223 134 442q0 213 -134 436v1z" />
    <glyph glyph-name="asterisk" unicode="*" horiz-adv-x="415" 
d="M354 628v-2l-96 -57l94 -58l-31 -50l-88 59l3 -110h-58l4 110l-90 -59l-30 50l91 58l-93 58l30 50l91 -58l-2 110h58l-3 -110l90 60l30 -52v1z" />
    <glyph glyph-name="plus" unicode="+" 
d="M532 317v-1h-206v-206h-78v206h-206v79h206v206h78v-206h206v-79v1z" />
    <glyph glyph-name="comma" unicode="," horiz-adv-x="236" 
d="M101 -14h3q-48 13 -48 58q0 24 18 42t42 18t42 -18t18 -42q0 -58 -76 -161h-50q40 66 51 102v1z" />
    <glyph glyph-name="hyphen" unicode="-" horiz-adv-x="398" 
d="M356 214v-1h-314v87h314v-87v1z" />
    <glyph glyph-name="period" unicode="." horiz-adv-x="236" 
d="M117 107l1 -1q24 0 42 -18t18 -42t-18 -42t-42 -18q-25 0 -43 18t-18 42t18 42t42 18v1z" />
    <glyph glyph-name="slash" unicode="/" horiz-adv-x="529" 
d="M502 694v-1l-413 -708l-62 35l413 708l62 -35v1z" />
    <glyph glyph-name="zero" unicode="0" 
d="M288 730v-2q118 0 186 -98q67 -97 67 -272q0 -176 -66 -274q-68 -98 -187 -98q-118 0 -186 98t-68 275q0 175 68 273t186 98zM288 74v-2q75 0 116 74t41 209q0 127 -38 206q-39 78 -119 78q-76 0 -117 -75q-41 -74 -41 -208q0 -135 41 -209t117 -74v1z" />
    <glyph glyph-name="one" unicode="1" 
d="M360 2v-2h-92v628h-146l46 85h192v-712v1z" />
    <glyph glyph-name="two" unicode="2" 
d="M536 1v-1h-502l296 344q62 73 77 107q15 35 15 65q0 56 -36 90q-35 34 -88 34q-58 0 -100 -39q-43 -40 -50 -111h-98q11 115 80 176q71 62 170 62q95 0 156 -58q62 -59 62 -154q0 -42 -20 -90q-18 -43 -59 -92l-214 -246h311v-88v1z" />
    <glyph glyph-name="three" unicode="3" 
d="M396 373v-3q58 -18 93 -66q33 -48 33 -109q0 -95 -66 -153q-65 -58 -171 -58q-95 0 -162 58q-69 59 -73 158h96q5 -63 44 -97q40 -34 96 -34q62 0 101 36t39 93q0 59 -40 95q-41 36 -119 36h-40v80h38q69 0 107 34q39 35 39 89q0 52 -34 82q-35 30 -90 30q-51 0 -88 -31
q-38 -32 -42 -83h-94q6 91 71 145q64 54 156 54q93 0 153 -54t60 -141q0 -55 -28 -98q-29 -44 -79 -64v1z" />
    <glyph glyph-name="four" unicode="4" 
d="M532 252v-83h-78v-169h-89v169h-349v83l362 476h76v-476h78zM366 253v-1v324l-246 -324h246v1z" />
    <glyph glyph-name="five" unicode="5" 
d="M189 466l-1 1q34 8 72 8q117 0 187 -64t70 -176q0 -103 -70 -176q-71 -74 -190 -74q-132 0 -240 96l56 70q82 -82 185 -82q74 0 118 48q44 50 44 119q0 76 -52 116t-146 40q-68 0 -134 -24l54 343h349v-86h-278l-24 -160v1z" />
    <glyph glyph-name="six" unicode="6" 
d="M220 460l1 -2q41 23 97 23q93 0 161 -68q67 -67 67 -171q0 -114 -74 -185q-73 -70 -182 -70q-110 0 -183 69q-74 71 -74 184q0 57 26 118q24 56 85 144l156 220h108zM289 73l1 -1q66 0 112 45q46 46 46 118q0 76 -46 119t-110 43q-68 0 -115 -45q-48 -45 -48 -117
q0 -73 46 -118q47 -45 114 -45v1z" />
    <glyph glyph-name="seven" unicode="7" 
d="M559 713v-1l-355 -712h-104l312 626h-355v86h502v1z" />
    <glyph glyph-name="eight" unicode="8" 
d="M398 376v-1q58 -24 90 -72q32 -49 32 -109q0 -96 -69 -152q-70 -56 -165 -56q-99 0 -166 58q-68 59 -68 151q0 62 33 110t91 72q-51 26 -76 67q-27 42 -27 90q0 90 63 142q64 53 150 53q90 0 152 -54t62 -142q0 -46 -26 -89q-25 -42 -76 -68zM285 416h1q50 0 85 34
q36 34 36 82q0 50 -35 82t-85 32q-49 0 -84 -32q-36 -32 -36 -82q0 -47 35 -82q34 -34 83 -34zM288 71l-2 -1q60 0 100 36t40 95q0 54 -41 93t-97 39t-96 -39q-41 -38 -41 -93q0 -59 40 -95t97 -36v1z" />
    <glyph glyph-name="nine" unicode="9" 
d="M355 254l-1 1q-40 -22 -97 -22q-93 0 -161 68q-67 67 -67 170q0 115 74 186q73 70 182 70q110 0 183 -70q74 -69 74 -183q0 -57 -26 -118q-24 -56 -85 -144l-156 -220h-108zM283 316h-1q67 0 116 44q47 45 47 117q0 75 -47 119t-113 44q-65 0 -112 -45q-46 -45 -46 -118
q0 -76 46 -119t110 -43v1z" />
    <glyph glyph-name="colon" unicode=":" horiz-adv-x="256" 
d="M128 484q24 0 42 -18t18 -42t-18 -42t-42 -18t-42 18t-18 42t18 42t42 18zM128 107v-1q24 0 42 -18t18 -42t-18 -42t-42 -18t-42 18t-18 42t18 42t42 18v1z" />
    <glyph glyph-name="semicolon" unicode=";" horiz-adv-x="256" 
d="M110 -15l4 1q-48 13 -48 58q0 24 18 42t42 18t42 -18t18 -42q0 -58 -76 -161h-50q39 63 50 102zM128 485v-1q24 0 42 -18t18 -42t-18 -42t-42 -18t-42 18t-18 42t18 42t42 18v1z" />
    <glyph glyph-name="less" unicode="&#x3c;" 
d="M532 105v-1l-490 213v80l490 213v-85l-387 -168l387 -168v-85v1z" />
    <glyph glyph-name="equal" unicode="=" 
d="M532 493v-79h-490v79h490zM532 219v-1h-490v79h490v-79v1z" />
    <glyph glyph-name="greater" unicode="&#x3e;" 
d="M532 317v-1l-490 -213v85l387 168l-387 168v85l490 -213v-80v1z" />
    <glyph glyph-name="question" unicode="?" horiz-adv-x="555" 
d="M37 507h1q10 102 81 162t162 60q106 0 171 -64q65 -65 65 -158q0 -67 -36 -126t-130 -114q-31 -19 -38 -34q-9 -17 -9 -42v-12h-87v10q0 48 20 85q19 37 60 61q78 47 104 88q25 40 25 84q0 58 -40 98t-107 40q-59 0 -101 -36q-43 -36 -50 -102h-91zM257 107l2 -1
q24 0 42 -18t18 -42t-18 -42t-42 -18q-23 0 -43 18q-19 18 -19 42t18 42t42 18v1z" />
    <glyph glyph-name="at" unicode="@" horiz-adv-x="967" 
d="M782 -145l2 -7q-131 -70 -270 -70q-123 0 -230 62q-106 62 -168 171q-61 109 -61 242q0 125 60 237q58 111 164 176q104 64 237 64q168 0 283 -112q116 -113 116 -288q0 -151 -68 -248q-68 -95 -160 -95q-44 0 -68 24t-24 68q-29 -42 -74 -67q-43 -24 -94 -24
q-85 0 -137 60q-53 61 -53 157q0 116 70 199q71 84 180 84q55 0 92 -22t60 -66l14 72h80l-49 -263q-18 -95 -18 -106q0 -23 10 -33q9 -10 27 -10q42 0 86 77t44 190q0 148 -94 242t-232 94q-160 0 -268 -120t-108 -284q0 -178 112 -289q113 -111 272 -111q126 0 235 64z
M435 63v1q63 0 112 46t60 121l8 45q1 3 1 16q0 52 -36 84q-37 32 -89 32q-74 0 -122 -60t-48 -140q0 -66 30 -106t84 -40v1z" />
    <glyph glyph-name="A" unicode="A" horiz-adv-x="685" 
d="M204 234h275l-139 326zM676 1l-1 -1h-98l-64 152h-344l-64 -152h-94l302 712h59l304 -712v1z" />
    <glyph glyph-name="B" unicode="B" horiz-adv-x="578" 
d="M407 387l-1 -3q66 -18 100 -67q35 -50 35 -110q0 -95 -64 -150q-65 -56 -178 -56h-217v712h202q120 0 172 -52q51 -53 51 -121q0 -55 -25 -92q-26 -39 -75 -61zM172 417v1h116q55 0 90 32t35 80q0 42 -33 71q-32 28 -87 28h-121v-212zM174 86l-2 -2h124q73 0 113 32
q39 33 39 93q0 56 -38 91q-38 36 -102 36h-134v-251v1z" />
    <glyph glyph-name="C" unicode="C" horiz-adv-x="668" 
d="M411 -13l1 -3q-161 0 -265 107q-105 108 -105 266q0 101 49 186q48 85 134 135t187 50q125 0 220 -55v-108q-104 74 -221 74q-115 0 -194 -82q-80 -83 -80 -200q0 -122 78 -203q77 -80 198 -80q115 0 218 72v-106q-103 -54 -220 -54v1z" />
    <glyph glyph-name="D" unicode="D" horiz-adv-x="696" 
d="M80 711v1h194q172 0 276 -98q103 -97 103 -262t-106 -259t-288 -94h-179v712zM171 86l1 1h81q145 0 225 68q78 67 78 198t-80 202q-79 70 -223 70h-82v-540v1z" />
    <glyph glyph-name="E" unicode="E" horiz-adv-x="525" 
d="M488 -1v1h-408v712h398v-86h-306v-224h293v-86h-293v-230h316v-87z" />
    <glyph glyph-name="F" unicode="F" horiz-adv-x="510" 
d="M488 627v-1h-316v-224h293v-86h-293v-316h-92v712h408v-86v1z" />
    <glyph glyph-name="G" unicode="G" horiz-adv-x="782" 
d="M744 328l2 -2q0 -152 -91 -246t-244 -94q-154 0 -262 108t-108 263q0 156 106 263q107 108 264 108q191 0 297 -144l-78 -55q-83 110 -219 110q-118 0 -196 -82q-78 -83 -78 -200q0 -121 78 -204q78 -82 196 -82q90 0 156 54t80 149h-192v85h289v-32v1z" />
    <glyph glyph-name="H" unicode="H" horiz-adv-x="712" 
d="M632 1v-1h-92v332h-368v-332h-92v712h92v-298h368v298h92v-712v1z" />
    <glyph glyph-name="I" unicode="I" horiz-adv-x="252" 
d="M172 1v-1h-92v712h92v-712v1z" />
    <glyph glyph-name="J" unicode="J" horiz-adv-x="446" 
d="M371 196l1 -2q0 -102 -45 -156q-45 -53 -131 -53q-117 0 -183 102l68 56q47 -71 107 -71q46 0 69 32q22 32 22 99v511h92v-519v1z" />
    <glyph glyph-name="K" unicode="K" horiz-adv-x="631" 
d="M620 1v-1h-122l-326 347v-347h-92v712h92v-332l324 332h116l-342 -346l350 -366v1z" />
    <glyph glyph-name="L" unicode="L" horiz-adv-x="496" 
d="M488 -1v1h-408v712h92v-626h316v-87z" />
    <glyph glyph-name="M" unicode="M" horiz-adv-x="901" 
d="M870 1v-1h-91l-85 513l-216 -513h-52l-221 513l-83 -513h-92l119 712h62l240 -556l236 556h62l121 -712v1z" />
    <glyph glyph-name="N" unicode="N" horiz-adv-x="735" 
d="M657 1l-1 -1h-66l-420 540v-540h-89v712h66l421 -540v540h89v-712v1z" />
    <glyph glyph-name="O" unicode="O" horiz-adv-x="826" 
d="M411 728h1q154 0 262 -109q108 -110 108 -263q0 -100 -50 -186t-136 -136t-186 -50q-154 0 -262 109t-108 263q0 100 50 186q50 87 135 136q86 50 186 50zM412 75v-1q116 0 195 82t79 200t-78 200t-196 82q-116 0 -195 -82q-80 -83 -80 -200t80 -200q79 -82 195 -82v1z
" />
    <glyph glyph-name="P" unicode="P" horiz-adv-x="547" 
d="M81 713l-1 -1h192q116 0 181 -59q64 -58 64 -156t-65 -160t-177 -62h-102v-274h-92v712zM171 362l1 -2h98q68 0 111 38q42 38 42 100q0 60 -41 95q-42 36 -113 36h-98v-268v1z" />
    <glyph glyph-name="Q" unicode="Q" horiz-adv-x="826" 
d="M599 35h1q-89 -50 -188 -50q-154 0 -262 109q-108 110 -108 263q0 100 50 186q50 87 135 136q86 50 186 50q154 0 262 -109q108 -110 108 -263q0 -161 -118 -273l100 -117h-108zM605 156l1 -2q81 84 81 203q0 117 -78 200q-78 82 -196 82q-116 0 -195 -82
q-80 -83 -80 -200t80 -200q79 -82 195 -82q68 0 126 31l-142 166h108l100 -117v1z" />
    <glyph glyph-name="R" unicode="R" horiz-adv-x="574" 
d="M569 0h1h-116l-230 286h-51v-286h-92v712h190q115 0 179 -57t64 -151q0 -82 -48 -138t-135 -72zM171 370h1h94q72 0 114 36q41 36 41 98q0 58 -42 90q-43 32 -112 32h-96v-257v1z" />
    <glyph glyph-name="S" unicode="S" horiz-adv-x="518" 
d="M255 -16h4q-61 0 -128 26q-64 25 -112 68l58 72q88 -79 183 -79q63 0 98 31q36 32 36 84q0 41 -31 69q-32 29 -111 59q-136 53 -172 104q-38 53 -38 120q0 81 66 135q64 54 162 54q106 0 201 -62l-46 -78q-83 53 -160 53q-57 0 -92 -28q-36 -28 -36 -73q0 -44 29 -73
q26 -26 98 -56q144 -58 183 -108q38 -50 38 -115q0 -93 -66 -148q-68 -56 -164 -56v1z" />
    <glyph glyph-name="T" unicode="T" horiz-adv-x="510" 
d="M499 627l-1 -1h-196v-626h-92v626h-196v87h485v-87v1z" />
    <glyph glyph-name="U" unicode="U" horiz-adv-x="685" 
d="M340 -16h2q-120 0 -194 72t-74 195v460h92v-456q0 -92 51 -137q50 -44 124 -44q79 0 129 47q48 48 48 134v456h92v-460q0 -122 -73 -195t-197 -73v1z" />
    <glyph glyph-name="V" unicode="V" horiz-adv-x="660" 
d="M648 713l1 -1l-288 -712h-62l-289 712h98l222 -557l224 557h94v1z" />
    <glyph glyph-name="W" unicode="W" horiz-adv-x="1002" 
d="M986 713l-1 -1l-232 -712h-66q-182 530 -184 535l-188 -534h-66l-232 712h96q169 -519 173 -542l190 542h56q177 -499 188 -541l68 216l104 324h94v1z" />
    <glyph glyph-name="X" unicode="X" horiz-adv-x="642" 
d="M630 1l-2 -1h-110l-198 294l-198 -294h-106l252 362l-244 350h110l188 -278l188 278h106l-240 -346l254 -366v1z" />
    <glyph glyph-name="Y" unicode="Y" horiz-adv-x="616" 
d="M610 713v-1l-255 -396v-316h-92v316l-256 396h108l197 -308l194 308h104v1z" />
    <glyph glyph-name="Z" unicode="Z" horiz-adv-x="600" 
d="M593 712h1l-418 -626h383v-87h-549l421 626h-374v86h536v1z" />
    <glyph glyph-name="bracketleft" unicode="[" horiz-adv-x="306" 
d="M272 -204v-1h-192v918h192v-74h-108v-770h108v-74v1z" />
    <glyph glyph-name="backslash" unicode="\" horiz-adv-x="529" 
d="M502 21v-1l-62 -35l-413 708l62 35l413 -708v1z" />
    <glyph glyph-name="bracketright" unicode="]" horiz-adv-x="306" 
d="M226 -204v-1h-192v74h108v770h-108v74h192v-918v1z" />
    <glyph glyph-name="asciicircum" unicode="^" horiz-adv-x="582" 
d="M338 713v-1l178 -322h-88l-136 240l-138 -240h-88l178 322h94v1z" />
    <glyph glyph-name="underscore" unicode="_" horiz-adv-x="512" 
d="M518 -127v-1h-524v51h524v-51v1z" />
    <glyph glyph-name="grave" unicode="`" horiz-adv-x="355" 
d="M247 578l-1 -2l-39 -34l-142 132l66 57l116 -154v1z" />
    <glyph glyph-name="a" unicode="a" horiz-adv-x="599" 
d="M285 64l-1 -2q66 0 114 50q47 50 47 124q0 72 -48 122t-114 50q-71 0 -115 -48q-45 -48 -45 -124q0 -75 44 -124q44 -48 118 -48zM445 -2l-1 2v72q-32 -41 -77 -64q-47 -24 -94 -24q-105 0 -173 72q-67 71 -67 179q0 102 69 174t171 72q47 0 94 -24t78 -66v74h86v-468
h-86v1z" />
    <glyph glyph-name="b" unicode="b" horiz-adv-x="600" 
d="M153 395l1 -1q32 42 78 66q47 24 94 24q102 0 172 -72q69 -72 69 -174q0 -108 -67 -179q-68 -72 -174 -72q-48 0 -96 24t-77 62v-72h-86v728h86v-334zM317 61l-1 1q74 0 118 48q44 49 44 124t-44 124q-45 48 -117 48q-66 0 -114 -50t-48 -122q0 -74 48 -124t114 -50v1z
" />
    <glyph glyph-name="c" unicode="c" horiz-adv-x="446" 
d="M286 -11l-2 -5q-108 0 -179 71q-70 71 -70 180q0 106 72 178t180 72q74 0 135 -31v-85q-62 38 -133 38q-73 0 -119 -48q-46 -47 -46 -122q0 -74 44 -123q44 -48 120 -48q67 0 134 38v-85q-63 -31 -136 -31v1z" />
    <glyph glyph-name="d" unicode="d" horiz-adv-x="600" 
d="M284 64v-2q66 0 114 50t48 124q0 72 -48 122t-114 50q-71 0 -116 -48q-46 -47 -46 -124q0 -75 44 -124q44 -48 118 -48zM445 0h1v72q-29 -38 -77 -62t-96 -24q-105 0 -173 72q-67 71 -67 179q0 102 69 174t171 72q47 0 94 -24t78 -66v334h86v-728h-86v1z" />
    <glyph glyph-name="e" unicode="e" horiz-adv-x="550" 
d="M430 280h-2q-7 57 -49 94q-42 36 -98 36q-60 0 -102 -36q-43 -37 -53 -94h304zM279 -15l1 -1q-108 0 -177 70t-69 182q0 103 71 176q71 72 175 72q110 0 174 -70t64 -184v-20h-397q5 -65 48 -107t111 -42q92 0 150 76l73 -40q-80 -113 -224 -113v1z" />
    <glyph glyph-name="f" unicode="f" horiz-adv-x="280" 
d="M299 660l1 -4q-30 11 -64 11q-32 0 -45 -19q-13 -17 -13 -64v-114h98v-74h-98v-394h-86v394h-72v74h72v116q0 78 34 119q34 42 100 42q44 0 73 -7v-81v1z" />
    <glyph glyph-name="g" unicode="g" horiz-adv-x="587" 
d="M516 14h2q0 -104 -66 -170t-180 -66q-90 0 -152 48t-73 123h85q9 -44 47 -70t94 -26q71 0 115 42t44 114v76q-31 -40 -75 -62q-48 -23 -92 -23q-103 0 -167 70q-65 71 -65 173q0 99 66 170q66 70 165 70q45 0 91 -23q42 -22 75 -64v72h86v-454zM279 77l-1 1q64 0 110 46
q45 46 45 116q0 69 -46 116q-46 48 -110 48q-69 0 -111 -46q-43 -46 -43 -120q0 -72 42 -117t114 -45v1z" />
    <glyph glyph-name="h" unicode="h" horiz-adv-x="532" 
d="M467 -1l3 1h-86v290q0 60 -23 89q-24 28 -74 28q-70 0 -134 -85v-322h-86v728h86v-318q69 73 153 73q76 0 119 -48q42 -47 42 -125v-312v1z" />
    <glyph glyph-name="i" unicode="i" horiz-adv-x="237" 
d="M119 696q25 0 41 -18q17 -19 17 -42q0 -24 -17 -41t-41 -17q-25 0 -42 17q-18 17 -18 41t18 42t42 18zM162 1v-1h-86v468h86v-468v1z" />
    <glyph glyph-name="j" unicode="j" horiz-adv-x="237" 
d="M119 696q25 0 41 -18q17 -19 17 -42q0 -24 -17 -41t-41 -17q-25 0 -42 17q-18 17 -18 41t18 42t42 18zM162 -27v1q0 -92 -40 -144t-116 -52h-15v76q43 0 64 28t21 99v486h86v-494z" />
    <glyph glyph-name="k" unicode="k" horiz-adv-x="472" 
d="M466 1l1 -1h-110l-203 242v-242h-86v728h86v-460l196 200h110l-214 -212l220 -256v1z" />
    <glyph glyph-name="l" unicode="l" horiz-adv-x="223" 
d="M154 1v-1h-86v728h86v-728v1z" />
    <glyph glyph-name="m" unicode="m" horiz-adv-x="786" 
d="M725 2l-1 -2h-86v290q0 66 -18 91q-18 26 -60 26q-62 0 -119 -84v-322h-86v290q0 59 -17 88q-18 28 -64 28q-59 0 -119 -84v-322h-86v468h86v-56q61 72 140 72q49 0 80 -22q31 -21 48 -63q67 85 157 85q70 0 107 -46q38 -47 38 -126v-312v1z" />
    <glyph glyph-name="n" unicode="n" horiz-adv-x="532" 
d="M467 -1l3 1h-86v290q0 60 -23 89q-24 28 -74 28q-70 0 -134 -85v-322h-86v468h86v-58q69 73 153 73q76 0 119 -48q42 -47 42 -125v-312v1z" />
    <glyph glyph-name="o" unicode="o" horiz-adv-x="569" 
d="M283 484h1q104 0 177 -73q72 -73 72 -176q0 -104 -73 -177q-74 -74 -177 -74t-177 74t-74 177q0 102 74 176q73 73 177 73zM284 61v1q69 0 116 50q46 49 46 122q0 72 -46 121q-47 50 -116 50q-68 0 -115 -50t-47 -122q0 -73 46 -122q47 -50 116 -50z" />
    <glyph glyph-name="p" unicode="p" horiz-adv-x="600" 
d="M155 394l-1 2q29 38 77 62t96 24q107 0 174 -72q67 -71 67 -179q0 -101 -69 -175q-70 -73 -172 -73q-47 0 -94 24t-78 66v-297h-86v690h86v-72zM316 61v1q70 0 117 48q45 48 45 124q0 75 -44 124q-44 48 -118 48q-66 0 -114 -50t-48 -123q0 -72 48 -123q48 -50 114 -50v1
z" />
    <glyph glyph-name="q" unicode="q" horiz-adv-x="600" 
d="M284 62q66 0 114 50q48 51 48 123q0 74 -48 122q-48 49 -114 49q-74 0 -118 -48q-44 -49 -44 -124q0 -77 46 -124q45 -48 116 -48zM447 -219l-1 -3v297q-32 -42 -78 -66t-94 -24q-102 0 -171 73t-69 175q0 108 67 179q67 72 173 72q48 0 96 -24t77 -62v72h86v-690h-86v1z
" />
    <glyph glyph-name="r" unicode="r" horiz-adv-x="345" 
d="M336 478v-1l-10 -92q-27 7 -49 7q-70 0 -124 -80v-312h-86v468h86v-72q65 87 137 87q26 0 46 -6v1z" />
    <glyph glyph-name="s" unicode="s" horiz-adv-x="399" 
d="M197 -17l1 1q-99 0 -180 60l47 66q65 -50 133 -50q42 0 61 16q20 17 20 48q0 21 -16 37q-17 17 -66 36q-107 43 -135 78q-28 34 -28 78q0 56 46 92q47 36 122 36q76 0 153 -40l-35 -73q-62 38 -120 38q-38 0 -58 -14t-20 -38q0 -20 20 -37q16 -14 82 -41q94 -38 119 -72
q26 -35 26 -78q0 -63 -47 -104q-46 -40 -125 -40v1z" />
    <glyph glyph-name="t" unicode="t" horiz-adv-x="294" 
d="M278 395v-1h-91v-394h-86v394h-84v74h84v158h86v-158h91v-74v1z" />
    <glyph glyph-name="u" unicode="u" horiz-adv-x="526" 
d="M262 -15l1 -1q-93 0 -147 54t-54 144v286h86v-284q0 -54 32 -89q31 -34 83 -34q50 0 81 34q32 35 32 88v284h86v-286q0 -89 -54 -143t-146 -54v1z" />
    <glyph glyph-name="v" unicode="v" horiz-adv-x="482" 
d="M476 469l1 -1l-210 -468h-54l-210 468h94l145 -341l144 341h90v1z" />
    <glyph glyph-name="w" unicode="w" horiz-adv-x="750" 
d="M747 469l-1 -1l-192 -468h-50l-127 326l-130 -326h-50l-192 468h90l132 -331l131 331h46l127 -328l130 328h86v1z" />
    <glyph glyph-name="x" unicode="x" horiz-adv-x="500" 
d="M487 1l1 -1h-106l-133 182l-136 -182h-101l186 240l-176 228h106l123 -168l125 168h101l-176 -226l186 -242v1z" />
    <glyph glyph-name="y" unicode="y" horiz-adv-x="511" 
d="M508 469l-1 -1l-318 -690h-89l114 248l-203 442h94l156 -348l157 348h90v1z" />
    <glyph glyph-name="z" unicode="z" horiz-adv-x="481" 
d="M464 469v-1l-289 -391h261v-77h-420l290 391h-264v77h422v1z" />
    <glyph glyph-name="braceleft" unicode="{" horiz-adv-x="284" 
d="M242 -206v1h-32q-48 0 -79 33q-31 34 -31 92v173q0 51 -18 84q-17 32 -53 49v59q35 15 53 47q18 33 18 83v174q0 58 31 92q30 34 77 34h34v-74h-22q-18 0 -28 -12q-10 -11 -10 -47v-168q0 -54 -18 -94t-54 -66q36 -26 54 -66t18 -94v-168q0 -36 10 -47q10 -12 28 -12h22
v-74v1z" />
    <glyph glyph-name="bar" unicode="|" horiz-adv-x="244" 
d="M160 -255v-1h-76v1024h76v-1024v1z" />
    <glyph glyph-name="braceright" unicode="}" horiz-adv-x="284" 
d="M252 228l1 -4q-36 -17 -52 -49q-18 -33 -18 -84v-173q0 -60 -32 -92t-79 -32h-32v74h22q18 0 28 12q10 11 10 47v168q0 53 18 94t54 66q-36 25 -54 66t-18 94v168q0 36 -10 47q-10 12 -28 12h-22v74h34q46 0 77 -34t31 -92v-174q0 -50 18 -83q17 -32 52 -47v-59v1z" />
    <glyph glyph-name="asciitilde" unicode="~" horiz-adv-x="582" 
d="M554 338v-2q-42 -38 -72 -54q-31 -16 -65 -16q-57 0 -134 46q-79 47 -117 47q-27 0 -62 -20q-33 -19 -76 -57v96q39 34 74 53q31 16 67 16q20 0 50 -8q27 -7 84 -38q50 -26 73 -36t42 -10q26 0 60 19q32 18 76 59v-96v1z" />
    <glyph glyph-name="exclamdown" unicode="&#xa1;" horiz-adv-x="256" 
d="M165 309l13 -531h-100l12 531h75zM129 485l-1 -1q24 0 42 -18t18 -42t-18 -42t-42 -18t-42 18t-18 42t18 42t43 18v1z" />
    <glyph glyph-name="cent" unicode="&#xa2;" 
d="M478 140l2 -3q-40 -20 -101 -29v-93h-68v93q-101 12 -159 82q-59 71 -59 167q0 93 60 164q59 69 159 83v90h68v-90q60 -8 100 -29v-85q-62 38 -134 38q-74 0 -120 -48q-46 -47 -46 -122q0 -76 45 -124q44 -48 119 -48q67 0 134 38v-85v1z" />
    <glyph glyph-name="sterling" unicode="&#xa3;" 
d="M574 111v1q-22 -64 -60 -96t-92 -32q-43 0 -114 28q-69 28 -80 28q-27 8 -43 8q-44 0 -74 -65l-78 16q19 61 53 97q32 34 78 39q12 28 12 65q0 48 -26 128h-88v73h64q-26 84 -26 127q0 86 58 143t159 57q87 0 145 -44q57 -43 63 -122h-96q-4 40 -34 62q-31 22 -77 22
q-54 0 -88 -34t-34 -89q0 -44 26 -124h180v-73h-160q22 -66 22 -127q0 -41 -12 -72q5 0 56 -20q85 -32 114 -32q50 0 75 54z" />
    <glyph glyph-name="currency" unicode="&#xa4;" 
d="M546 142l-2 2l-45 -45l-97 95q-49 -35 -114 -35q-62 0 -111 36l-98 -96l-46 45l98 99q-36 50 -36 112q0 65 35 112l-95 97l45 46l96 -96q53 38 114 38q66 0 115 -37l96 94l45 -46l-93 -95q37 -49 37 -115q0 -58 -38 -114zM288 229v1q54 0 90 36t36 89q0 55 -36 92
q-36 38 -92 38q-51 0 -86 -38q-34 -37 -34 -92q0 -51 36 -89q34 -37 86 -37z" />
    <glyph glyph-name="yen" unicode="&#xa5;" 
d="M575 713l-1 -1l-190 -314h160v-73h-204l-5 -9v-76h208v-72h-208v-168h-92v168h-200v72h200v77l-5 8h-196v73h150l-190 314h106l184 -305l181 305h102v1z" />
    <glyph glyph-name="brokenbar" unicode="&#xa6;" horiz-adv-x="244" 
d="M160 691v-358h-76v358h76zM160 -178v-1h-76v358h76v-358v1z" />
    <glyph glyph-name="section" unicode="&#xa7;" horiz-adv-x="511" 
d="M342 574h-1q-5 39 -28 59q-25 21 -61 21q-42 0 -68 -24t-26 -58q0 -24 14 -44t40 -36l126 -80q56 -34 82 -61q25 -25 39 -56q13 -29 13 -64q0 -79 -72 -143q48 -42 48 -126q0 -76 -56 -130t-141 -54t-143 52t-58 142h91q0 -52 33 -83q32 -31 79 -31q45 0 74 28
q30 28 30 75q0 23 -11 47q-11 21 -52 47l-158 96q-47 28 -70 68q-22 38 -22 87q0 83 70 149q-42 40 -42 110q0 71 52 117q53 47 132 47q77 0 123 -40q47 -39 53 -115h-90zM329 132l2 -2q53 48 53 99q0 27 -16 50q-16 24 -52 46l-139 86q-51 -43 -51 -100q0 -30 16 -52
q18 -25 49 -43l138 -85v1z" />
    <glyph glyph-name="dieresis" unicode="&#xa8;" horiz-adv-x="355" 
d="M287 696h-1q24 0 41 -18q17 -19 17 -42q0 -24 -17 -41t-41 -17t-41 17q-18 17 -18 41t18 42t42 18zM68 697v-1q24 0 41 -18q17 -19 17 -42q0 -24 -17 -41t-41 -17q-23 0 -42 17q-18 17 -18 41t18 42t42 18v1z" />
    <glyph glyph-name="copyright" unicode="&#xa9;" horiz-adv-x="836" 
d="M418 729v-1q151 0 261 -110t110 -262q0 -100 -50 -186t-136 -136t-186 -50q-152 0 -262 110q-109 109 -109 263q0 152 110 262t262 110zM420 55l-1 1q124 0 212 88t88 213t-87 213t-212 88q-126 0 -214 -88t-88 -213q0 -126 88 -214t214 -88zM547 190l1 -2
q-56 -32 -109 -32q-91 0 -146 57q-56 59 -56 144q0 82 58 140q59 59 142 59q62 0 112 -32v-64q-46 34 -109 34q-56 0 -92 -40t-36 -98t36 -99q36 -40 94 -40q57 0 105 36v-64v1z" />
    <glyph glyph-name="ordfeminine" unicode="&#xaa;" horiz-adv-x="398" 
d="M343 428l-3 -2h-58v48q-42 -55 -104 -55q-66 0 -107 44t-41 108q0 71 44 115q43 43 110 43q60 0 101 -56v48h58v-293zM187 478l-1 -2q41 0 66 28q26 29 26 68q0 43 -26 72q-27 28 -65 28q-41 0 -66 -27q-26 -28 -26 -72q0 -39 24 -68q24 -28 68 -28v1z" />
    <glyph glyph-name="guillemotleft" unicode="&#xab;" horiz-adv-x="503" 
d="M359 269l129 -171l-66 -43l-162 214l162 214l66 -43zM254 99v-1l-66 -43l-162 214l162 214l66 -43l-129 -171l129 -171v1z" />
    <glyph glyph-name="logicalnot" unicode="&#xac;" 
d="M531 218h1h-79v196h-412v79h490v-276v1z" />
    <glyph glyph-name="uni00AD" unicode="&#xad;" horiz-adv-x="398" 
d="M356 214v-1h-314v87h314v-87v1z" />
    <glyph glyph-name="registered" unicode="&#xae;" horiz-adv-x="836" 
d="M418 729v-1q151 0 261 -110t110 -262q0 -100 -50 -186t-136 -136t-186 -50q-152 0 -262 110q-109 109 -109 263q0 152 110 262t262 110zM420 55l-1 1q124 0 212 88t88 213t-87 213t-212 88q-126 0 -214 -88t-88 -213q0 -126 88 -214t214 -88zM576 160l2 1h-83l-114 158
h-20v-158h-70v391h130q59 0 96 -32q36 -32 36 -84q0 -43 -25 -72t-75 -40zM360 380l2 -2h49q36 0 54 15t18 45q0 28 -18 41q-19 14 -53 14h-52v-114v1z" />
    <glyph glyph-name="macron" unicode="&#xaf;" horiz-adv-x="512" 
d="M518 791v-1h-524v51h524v-51v1z" />
    <glyph glyph-name="degree" unicode="&#xb0;" horiz-adv-x="440" 
d="M220 728q70 0 120 -50q49 -49 49 -120t-49 -120t-120 -49t-120 49q-50 50 -50 120t50 120t120 50zM219 463l1 -2q41 0 69 28q29 29 29 68q0 40 -29 71q-30 30 -70 30t-70 -30t-30 -70t30 -68q29 -28 70 -28v1z" />
    <glyph glyph-name="plusminus" unicode="&#xb1;" 
d="M532 463v-79h-206v-206h-78v206h-206v79h206v206h78v-206h206zM532 49v-1h-490v79h490v-79v1z" />
    <glyph glyph-name="twosuperior" unicode="&#xb2;" horiz-adv-x="367" 
d="M333 298l2 -3h-308q187 221 202 243q20 29 20 62q0 27 -19 43q-20 17 -48 17q-32 0 -54 -21q-21 -19 -26 -60h-82q6 72 52 112q44 40 111 40q61 0 104 -35q42 -34 42 -92q0 -52 -38 -102q-35 -44 -117 -139h159v-66v1z" />
    <glyph glyph-name="threesuperior" unicode="&#xb3;" horiz-adv-x="367" 
d="M256 515h-1q33 -12 52 -41q18 -28 18 -64q0 -52 -40 -88q-41 -36 -116 -36q-62 0 -102 31q-39 31 -50 85h74q6 -27 28 -40q22 -14 50 -14q35 0 57 18t22 48q0 32 -23 52q-23 21 -67 21h-19v54h18q39 0 62 20q22 19 22 52q0 27 -18 40q-19 14 -46 14q-25 0 -45 -14
q-19 -13 -24 -40h-74q8 54 48 84t96 30q65 0 102 -34q38 -35 38 -83q0 -70 -62 -96v1z" />
    <glyph glyph-name="acute" unicode="&#xb4;" horiz-adv-x="355" 
d="M291 674h-1l-142 -132l-39 34l116 154l66 -57v1z" />
    <glyph glyph-name="mu" unicode="&#xb5;" horiz-adv-x="531" 
d="M470 183l-1 -1q0 -88 -54 -143t-144 -55q-68 0 -116 39v-246h-86v690h86v-280q0 -57 32 -92q31 -34 83 -34q48 0 81 36q33 37 33 91v280h86v-286v1z" />
    <glyph glyph-name="paragraph" unicode="&#xb6;" horiz-adv-x="624" 
d="M602 629l1 -1h-62v-850h-86v850h-125v-850h-86v490q-99 3 -160 67q-62 65 -62 155q0 93 64 157q65 65 162 65h354v-84v1z" />
    <glyph glyph-name="periodcentered" unicode="&#xb7;" horiz-adv-x="236" 
d="M117 418l1 -1q24 0 42 -18t18 -42t-18 -42t-42 -18q-25 0 -43 18t-18 42t18 42t42 18v1z" />
    <glyph glyph-name="cedilla" unicode="&#xb8;" horiz-adv-x="355" 
d="M210 -44l2 -5q38 0 59 -18t21 -51q0 -41 -39 -65t-109 -24q-33 0 -58 4l8 54l34 -2q48 0 74 9q24 11 24 28q0 16 -12 24q-13 8 -35 8q-15 0 -29 -3l28 94h48l-16 -54v1z" />
    <glyph glyph-name="onesuperior" unicode="&#xb9;" horiz-adv-x="367" 
d="M236 295v-1h-77v354h-94l33 72h138v-426v1z" />
    <glyph glyph-name="ordmasculine" unicode="&#xba;" horiz-adv-x="371" 
d="M186 729v-1q66 0 111 -45t45 -109t-45 -109t-111 -45t-112 45t-46 109t46 109q46 46 112 46zM186 477v-2q40 0 65 28q26 29 26 70t-26 70q-25 28 -65 28q-41 0 -66 -28q-26 -29 -26 -69q0 -41 26 -70q25 -28 66 -28v1z" />
    <glyph glyph-name="guillemotright" unicode="&#xbb;" horiz-adv-x="503" 
d="M145 269l-129 171l66 43l162 -214l-162 -214l-66 43zM249 441v-1l66 43l162 -214l-162 -214l-66 43l129 171l-129 171v1z" />
    <glyph glyph-name="onequarter" unicode="&#xbc;" horiz-adv-x="841" 
d="M195 720v-426h-77v354h-94l33 72h138zM559 728l50 -30l-416 -714l-50 30zM760 145v-64h-44v-81h-74v81h-212v68l210 276h76v-280h44zM643 145v-1v179l-140 -179h140v1z" />
    <glyph glyph-name="onehalf" unicode="&#xbd;" horiz-adv-x="841" 
d="M195 720v-426h-77v354h-94l33 72h138zM540 728l50 -30l-416 -714l-50 30zM774 3l2 -3h-308q187 221 202 243q20 29 20 62q0 27 -19 43q-20 17 -48 17q-31 0 -54 -21q-21 -19 -26 -60h-82q6 72 52 112q44 40 111 40q61 0 104 -35q42 -35 42 -92q0 -52 -38 -102
q-35 -44 -117 -139h159v-66v1z" />
    <glyph glyph-name="threequarters" unicode="&#xbe;" horiz-adv-x="841" 
d="M256 514l-1 1q33 -12 52 -41q18 -28 18 -64q0 -52 -40 -88q-41 -36 -116 -36q-62 0 -102 31q-39 31 -50 85h74q6 -27 28 -40q22 -14 50 -14q35 0 57 18t22 48q0 32 -23 52q-23 21 -67 21h-19v54h18q39 0 62 20q22 19 22 52q0 27 -18 40q-19 14 -46 14q-25 0 -45 -14
q-19 -13 -24 -40h-74q8 54 48 84t96 30q65 0 102 -34q38 -35 38 -83q0 -70 -62 -96zM624 728l50 -30l-416 -714l-50 30zM792 145v-64h-44v-81h-74v81h-212v68l210 276h76v-280h44zM674 145v-1v179l-140 -179h140v1z" />
    <glyph glyph-name="questiondown" unicode="&#xbf;" horiz-adv-x="555" 
d="M517 -14v2q-9 -99 -79 -154q-71 -56 -163 -56q-107 0 -171 61q-65 62 -65 152q0 61 36 117q35 54 131 112q30 18 39 34q8 18 8 42v12h87v-10q0 -49 -20 -86q-19 -36 -68 -66q-77 -48 -100 -84q-22 -35 -22 -74q0 -56 40 -92t106 -36q60 0 101 32t49 94h91zM297 485l-2 -1
q23 0 43 -18q19 -18 19 -42t-18 -42t-42 -18t-42 18t-18 42t18 42t42 18v1z" />
    <glyph glyph-name="Agrave" unicode="&#xc0;" horiz-adv-x="685" 
d="M204 234h275l-139 326zM676 0h-1h-98l-64 152h-344l-64 -152h-94l302 712h59zM391 803l-1 -2l-39 -34l-142 132l66 57l116 -154v1z" />
    <glyph glyph-name="Aacute" unicode="&#xc1;" horiz-adv-x="685" 
d="M204 234h275l-139 326zM676 0h-1h-98l-64 152h-344l-64 -152h-94l302 712h59zM465 898h-1l-142 -132l-39 34l116 154l66 -57v1z" />
    <glyph glyph-name="Acircumflex" unicode="&#xc2;" horiz-adv-x="685" 
d="M204 234h275l-139 326zM676 0h-1h-98l-64 152h-344l-64 -152h-94l302 712h59zM496 815l-1 -1l-44 -48l-113 102l-112 -102l-43 48l156 142l157 -142v1z" />
    <glyph glyph-name="Atilde" unicode="&#xc3;" horiz-adv-x="685" 
d="M204 234h275l-139 326zM676 0h-1h-98l-64 152h-344l-64 -152h-94l302 712h59zM508 888l-2 -2q-7 -55 -34 -88q-27 -31 -65 -31q-30 0 -78 27q-37 20 -52 20q-26 0 -34 -47h-64q7 55 34 88q26 32 62 32q32 0 74 -24q41 -24 57 -24q26 0 36 48h66v1z" />
    <glyph glyph-name="Adieresis" unicode="&#xc4;" horiz-adv-x="685" 
d="M204 234h275l-139 326zM676 0h-1h-98l-64 152h-344l-64 -152h-94l302 712h59zM449 884h-1q25 0 41 -18q17 -19 17 -42q0 -24 -17 -41t-41 -17t-41 17q-18 17 -18 41t18 42t42 18zM230 885v-1q25 0 41 -18q17 -19 17 -42q0 -24 -17 -41t-41 -17q-23 0 -42 17
q-18 17 -18 41t18 42t42 18v1z" />
    <glyph glyph-name="Aring" unicode="&#xc5;" horiz-adv-x="685" 
d="M204 234h275l-139 326zM678 0h-3h-98l-64 152h-344l-64 -152h-94l286 677q-33 16 -50 43q-18 28 -18 63q0 47 34 81t82 34t82 -34t34 -81q0 -35 -19 -63q-21 -30 -53 -43zM342 713v-1q28 0 49 21t21 50t-20 49q-21 21 -50 21q-30 0 -49 -21q-21 -20 -21 -49q0 -28 20 -50
q20 -21 50 -21v1z" />
    <glyph glyph-name="AE" unicode="&#xc6;" horiz-adv-x="997" 
d="M986 -1v1h-408l-68 170h-337l-68 -170h-94l292 712h386l36 -86h-306l92 -224h291l34 -86h-290l94 -230h312zM476 253v-1l-135 330l-134 -330h269v1z" />
    <glyph glyph-name="Ccedilla" unicode="&#xc7;" horiz-adv-x="668" 
d="M361 -8l3 -4q-147 19 -236 123q-88 104 -88 245q0 101 49 186q48 85 134 135t187 50q125 0 220 -55v-108q-104 74 -221 74q-115 0 -194 -82q-80 -83 -80 -200q0 -122 78 -203q77 -80 198 -80q115 0 218 72v-106q-103 -54 -220 -54h-1l-9 -34q38 0 59 -18t21 -51
q0 -41 -39 -65t-109 -24q-33 0 -58 4l8 54l34 -2q49 0 74 9q24 11 24 28q0 16 -12 24q-13 8 -35 8q-15 0 -29 -3l24 76v1z" />
    <glyph glyph-name="Egrave" unicode="&#xc8;" horiz-adv-x="525" 
d="M488 -1v1h-408v712h398v-86h-306v-224h293v-86h-293v-230h316v-87zM349 803l-1 -2l-39 -34l-142 132l66 57l116 -154v1z" />
    <glyph glyph-name="Eacute" unicode="&#xc9;" horiz-adv-x="525" 
d="M488 -1v1h-408v712h398v-86h-306v-224h293v-86h-293v-230h316v-87zM403 898h-1l-142 -132l-39 34l116 154l66 -57v1z" />
    <glyph glyph-name="Ecircumflex" unicode="&#xca;" horiz-adv-x="525" 
d="M488 -1v1h-408v712h398v-86h-306v-224h293v-86h-293v-230h316v-87zM437 815l-1 -1l-44 -48l-113 102l-112 -102l-43 48l156 142l157 -142v1z" />
    <glyph glyph-name="Edieresis" unicode="&#xcb;" horiz-adv-x="525" 
d="M488 -1v1h-408v712h398v-86h-306v-224h293v-86h-293v-230h316v-87zM390 884h-1q25 0 41 -18q17 -19 17 -42q0 -24 -17 -41t-41 -17t-41 17q-18 17 -18 41t18 42t42 18zM171 885v-1q25 0 41 -18q17 -19 17 -42q0 -24 -17 -41t-41 -17q-23 0 -42 17q-18 17 -18 41t18 42
t42 18v1z" />
    <glyph glyph-name="Igrave" unicode="&#xcc;" horiz-adv-x="252" 
d="M172 712v-712h-92v712h92zM193 803l-1 -2l-39 -34l-142 132l66 57l116 -154v1z" />
    <glyph glyph-name="Iacute" unicode="&#xcd;" horiz-adv-x="252" 
d="M172 712v-712h-92v712h92zM242 898h-1l-142 -132l-39 34l116 154l66 -57v1z" />
    <glyph glyph-name="Icircumflex" unicode="&#xce;" horiz-adv-x="252" 
d="M172 712v-712h-92v712h92zM283 815l-1 -1l-44 -48l-113 102l-112 -102l-43 48l156 142l157 -142v1z" />
    <glyph glyph-name="Idieresis" unicode="&#xcf;" horiz-adv-x="252" 
d="M172 712v-712h-92v712h92zM237 884h-1q24 0 41 -18q17 -19 17 -42q0 -24 -17 -41t-41 -17t-41 17q-18 17 -18 41t18 42t42 18zM18 885v-1q25 0 41 -18q17 -19 17 -42q0 -24 -17 -41t-41 -17q-23 0 -42 17q-18 17 -18 41t18 42t42 18v1z" />
    <glyph glyph-name="Eth" unicode="&#xd0;" horiz-adv-x="696" 
d="M80 400v312h194q172 0 276 -98q103 -97 103 -262t-106 -259t-288 -94h-179v318h-66v83h66zM171 87h1h81q145 0 225 68q78 67 78 198t-80 202q-79 70 -223 70h-82v-226h178v-83h-178v-230v1z" />
    <glyph glyph-name="Ntilde" unicode="&#xd1;" horiz-adv-x="735" 
d="M657 0h-1h-66l-420 540v-540h-89v712h66l421 -540v540h89v-712zM532 888l-2 -2q-7 -55 -34 -88q-27 -31 -65 -31q-30 0 -78 27q-37 20 -52 20q-26 0 -34 -47h-64q7 55 34 88q26 32 62 32q32 0 74 -24q41 -24 57 -24q26 0 36 48h66v1z" />
    <glyph glyph-name="Ograve" unicode="&#xd2;" horiz-adv-x="826" 
d="M411 728h1q154 0 262 -109q108 -110 108 -263q0 -100 -50 -186t-136 -136t-186 -50q-154 0 -262 109t-108 263q0 100 50 186q50 87 135 136q86 50 186 50zM412 74q116 0 195 82t79 200t-78 200t-196 82q-116 0 -195 -82q-80 -83 -80 -200t80 -200q79 -82 195 -82z
M473 803l-1 -2l-39 -34l-142 132l66 57l116 -154v1z" />
    <glyph glyph-name="Oacute" unicode="&#xd3;" horiz-adv-x="826" 
d="M411 728h1q154 0 262 -109q108 -110 108 -263q0 -100 -50 -186t-136 -136t-186 -50q-154 0 -262 109t-108 263q0 100 50 186q50 87 135 136q86 50 186 50zM412 74q116 0 195 82t79 200t-78 200t-196 82q-116 0 -195 -82q-80 -83 -80 -200t80 -200q79 -82 195 -82z
M529 898h-1l-142 -132l-39 34l116 154l66 -57v1z" />
    <glyph glyph-name="Ocircumflex" unicode="&#xd4;" horiz-adv-x="826" 
d="M411 728h1q154 0 262 -109q108 -110 108 -263q0 -100 -50 -186t-136 -136t-186 -50q-154 0 -262 109t-108 263q0 100 50 186q50 87 135 136q86 50 186 50zM412 74q116 0 195 82t79 200t-78 200t-196 82q-116 0 -195 -82q-80 -83 -80 -200t80 -200q79 -82 195 -82z
M569 815l-1 -1l-44 -48l-113 102l-112 -102l-43 48l156 142l157 -142v1z" />
    <glyph glyph-name="Otilde" unicode="&#xd5;" horiz-adv-x="826" 
d="M411 728h1q154 0 262 -109q108 -110 108 -263q0 -100 -50 -186t-136 -136t-186 -50q-154 0 -262 109t-108 263q0 100 50 186q50 87 135 136q86 50 186 50zM412 74q116 0 195 82t79 200t-78 200t-196 82q-116 0 -195 -82q-80 -83 -80 -200t80 -200q79 -82 195 -82z
M578 888l-2 -2q-7 -55 -34 -88q-27 -31 -65 -31q-30 0 -78 27q-37 20 -52 20q-26 0 -34 -47h-64q7 55 34 88q26 32 62 32q32 0 74 -24q41 -24 57 -24q26 0 36 48h66v1z" />
    <glyph glyph-name="Odieresis" unicode="&#xd6;" horiz-adv-x="826" 
d="M411 728h1q154 0 262 -109q108 -110 108 -263q0 -100 -50 -186t-136 -136t-186 -50q-154 0 -262 109t-108 263q0 100 50 186q50 87 135 136q86 50 186 50zM412 74q116 0 195 82t79 200t-78 200t-196 82q-116 0 -195 -82q-80 -83 -80 -200t80 -200q79 -82 195 -82z
M523 884h-1q24 0 41 -18q17 -19 17 -42q0 -24 -17 -41t-41 -17t-41 17q-18 17 -18 41t18 42t42 18zM304 885v-1q24 0 41 -18q17 -19 17 -42q0 -24 -17 -41t-41 -17q-23 0 -42 17q-18 17 -18 41t18 42t42 18v1z" />
    <glyph glyph-name="multiply" unicode="&#xd7;" 
d="M513 187v-1l-56 -56l-170 169l-168 -169l-56 56l169 169l-169 170l56 56l168 -169l170 169l56 -56l-169 -170l169 -169v1z" />
    <glyph glyph-name="Oslash" unicode="&#xd8;" horiz-adv-x="826" 
d="M799 693l1 -1l-100 -99q84 -103 84 -237q0 -100 -50 -186t-136 -136t-186 -50q-135 0 -238 85l-102 -102l-50 52l102 102q-83 104 -83 236q0 100 50 186q50 87 135 136q86 50 186 50q132 0 236 -84l100 100zM585 581l-1 -1q-73 60 -170 60q-116 0 -195 -82
q-80 -83 -80 -200q0 -95 54 -170zM239 135l1 -1q74 -60 172 -60q116 0 195 82t79 200q0 94 -53 170l-394 -392v1z" />
    <glyph glyph-name="Ugrave" unicode="&#xd9;" horiz-adv-x="685" 
d="M340 -17l2 1q-120 0 -194 72t-74 195v460h92v-456q0 -92 51 -137q50 -44 124 -44q79 0 129 47q48 48 48 134v456h92v-460q0 -122 -73 -195t-197 -73zM401 803l-1 -2l-39 -34l-142 132l66 57l116 -154v1z" />
    <glyph glyph-name="Uacute" unicode="&#xda;" horiz-adv-x="685" 
d="M340 -17l2 1q-120 0 -194 72t-74 195v460h92v-456q0 -92 51 -137q50 -44 124 -44q79 0 129 47q48 48 48 134v456h92v-460q0 -122 -73 -195t-197 -73zM465 898h-1l-142 -132l-39 34l116 154l66 -57v1z" />
    <glyph glyph-name="Ucircumflex" unicode="&#xdb;" horiz-adv-x="685" 
d="M340 -17l2 1q-120 0 -194 72t-74 195v460h92v-456q0 -92 51 -137q50 -44 124 -44q79 0 129 47q48 48 48 134v456h92v-460q0 -122 -73 -195t-197 -73zM497 815l-1 -1l-44 -48l-113 102l-112 -102l-43 48l156 142l157 -142v1z" />
    <glyph glyph-name="Udieresis" unicode="&#xdc;" horiz-adv-x="685" 
d="M340 -17l2 1q-120 0 -194 72t-74 195v460h92v-456q0 -92 51 -137q50 -44 124 -44q79 0 129 47q48 48 48 134v456h92v-460q0 -122 -73 -195t-197 -73zM451 884h-1q24 0 41 -18q17 -19 17 -42q0 -24 -17 -41t-41 -17t-41 17q-18 17 -18 41t18 42t42 18zM232 885v-1
q24 0 41 -18q17 -19 17 -42q0 -24 -17 -41t-41 -17q-23 0 -42 17q-18 17 -18 41t18 42t42 18v1z" />
    <glyph glyph-name="Yacute" unicode="&#xdd;" horiz-adv-x="616" 
d="M506 712h104l-255 -396v-316h-92v316l-256 396h108l197 -308zM424 898h-1l-142 -132l-39 34l116 154l66 -57v1z" />
    <glyph glyph-name="Thorn" unicode="&#xde;" horiz-adv-x="547" 
d="M173 610h-1h100q116 0 181 -60q64 -58 64 -156q0 -94 -63 -158t-179 -64h-102v-171h-92v712h92v-103zM171 258l1 -2h98q68 0 111 38q42 38 42 99q0 60 -41 96q-42 36 -113 36h-98v-268v1z" />
    <glyph glyph-name="germandbls" unicode="&#xdf;" horiz-adv-x="542" 
d="M367 397l-1 -1q68 -18 106 -69q36 -51 36 -123q0 -103 -65 -162q-65 -58 -190 -58h-47v77h41q87 0 130 36t43 108t-45 108q-44 37 -126 37h-16v76h14q61 0 96 34q36 34 36 87q0 45 -28 74q-28 31 -74 31q-59 0 -90 -42q-32 -43 -32 -116v-494h-86v505q0 100 56 162
t152 62q87 0 139 -49q51 -50 51 -124q0 -56 -26 -100q-25 -43 -74 -60v1z" />
    <glyph glyph-name="agrave" unicode="&#xe0;" horiz-adv-x="599" 
d="M285 64l-1 -2q66 0 114 50q47 50 47 124q0 72 -48 122t-114 50q-71 0 -115 -48q-45 -48 -45 -124q0 -75 44 -124q44 -48 118 -48zM445 -3l-1 3v72q-32 -41 -77 -64q-47 -24 -94 -24q-105 0 -173 72q-67 71 -67 179q0 102 69 174t171 72q47 0 94 -24t78 -66v74h86v-468
h-86zM349 578l-1 -2l-39 -34l-142 132l66 57l116 -154v1z" />
    <glyph glyph-name="aacute" unicode="&#xe1;" horiz-adv-x="599" 
d="M285 64l-1 -2q66 0 114 50q47 50 47 124q0 72 -48 122t-114 50q-71 0 -115 -48q-45 -48 -45 -124q0 -75 44 -124q44 -48 118 -48zM445 -3l-1 3v72q-32 -41 -77 -64q-47 -24 -94 -24q-105 0 -173 72q-67 71 -67 179q0 102 69 174t171 72q47 0 94 -24t78 -66v74h86v-468
h-86zM414 674h-1l-142 -132l-39 34l116 154l66 -57v1z" />
    <glyph glyph-name="acircumflex" unicode="&#xe2;" horiz-adv-x="599" 
d="M285 64l-1 -2q66 0 114 50q47 50 47 124q0 72 -48 122t-114 50q-71 0 -115 -48q-45 -48 -45 -124q0 -75 44 -124q44 -48 118 -48zM445 -3l-1 3v72q-32 -41 -77 -64q-47 -24 -94 -24q-105 0 -173 72q-67 71 -67 179q0 102 69 174t171 72q47 0 94 -24t78 -66v74h86v-468
h-86zM458 590l-1 -1l-44 -48l-113 102l-112 -102l-43 48l156 142l157 -142v1z" />
    <glyph glyph-name="atilde" unicode="&#xe3;" horiz-adv-x="599" 
d="M285 64l-1 -2q66 0 114 50q47 50 47 124q0 72 -48 122t-114 50q-71 0 -115 -48q-45 -48 -45 -124q0 -75 44 -124q44 -48 118 -48zM445 -3l-1 3v72q-32 -41 -77 -64q-47 -24 -94 -24q-105 0 -173 72q-67 71 -67 179q0 102 69 174t171 72q47 0 94 -24t78 -66v74h86v-468
h-86zM466 698l-2 -2q-7 -55 -34 -88q-27 -31 -65 -31q-30 0 -78 27q-37 20 -52 20q-26 0 -34 -47h-64q7 55 34 88q26 32 62 32q32 0 74 -24q41 -24 57 -24q26 0 36 48h66v1z" />
    <glyph glyph-name="adieresis" unicode="&#xe4;" horiz-adv-x="599" 
d="M285 64l-1 -2q66 0 114 50q47 50 47 124q0 72 -48 122t-114 50q-71 0 -115 -48q-45 -48 -45 -124q0 -75 44 -124q44 -48 118 -48zM445 -3l-1 3v72q-32 -41 -77 -64q-47 -24 -94 -24q-105 0 -173 72q-67 71 -67 179q0 102 69 174t171 72q47 0 94 -24t78 -66v74h86v-468
h-86zM411 696h-1q24 0 41 -18q17 -19 17 -42q0 -24 -17 -41t-41 -17t-41 17q-18 17 -18 41t18 42t42 18zM192 697v-1q24 0 41 -18q17 -19 17 -42q0 -24 -17 -41t-41 -17q-23 0 -42 17q-18 17 -18 41t18 42t42 18v1z" />
    <glyph glyph-name="aring" unicode="&#xe5;" horiz-adv-x="599" 
d="M285 64l-1 -2q66 0 114 50q47 50 47 124q0 72 -48 122t-114 50q-71 0 -115 -48q-45 -48 -45 -124q0 -75 44 -124q44 -48 118 -48zM445 -3l-1 3v72q-32 -41 -77 -64q-47 -24 -94 -24q-105 0 -173 72q-67 71 -67 179q0 102 69 174t171 72q47 0 94 -24t78 -66v74h86v-468
h-86zM295 742q43 0 75 -32q31 -31 31 -74q0 -44 -31 -75t-75 -31q-43 0 -74 31q-32 32 -32 75q0 42 32 74t74 32zM295 577v-1q24 0 42 18t18 42t-18 42t-42 18t-42 -18t-18 -42t18 -42t42 -18v1z" />
    <glyph glyph-name="ae" unicode="&#xe6;" horiz-adv-x="844" 
d="M813 207v2h-372q5 -67 48 -108q43 -40 99 -40q83 0 138 76l72 -40q-74 -113 -209 -113q-110 0 -179 94q-78 -94 -192 -94q-84 0 -136 42t-52 114q0 73 52 113q53 41 134 41q77 0 137 -42v30q0 62 -32 94t-92 32q-61 0 -141 -34v78q68 30 146 30q118 0 172 -92
q68 92 184 92q97 0 160 -68q63 -67 63 -185v-22zM726 280h-1q-14 64 -49 96q-38 33 -87 33q-53 0 -96 -35q-42 -35 -51 -94h284zM237 59l-1 -1q40 0 80 24t40 62q0 37 -35 60q-34 22 -90 22q-50 0 -79 -22q-31 -22 -31 -60t32 -62q31 -24 84 -24v1z" />
    <glyph glyph-name="ccedilla" unicode="&#xe7;" horiz-adv-x="446" 
d="M236 -4v-8q-93 16 -148 85q-54 67 -54 161q0 106 72 178t180 72q74 0 135 -31v-85q-62 38 -133 38q-72 0 -119 -48q-46 -47 -46 -122q0 -74 44 -123q43 -48 120 -48q67 0 134 38v-85q-63 -31 -136 -31h-1l-9 -34q38 0 59 -18t21 -51q0 -41 -39 -65q-40 -24 -109 -24
q-33 0 -58 4l8 54l34 -2q49 0 73 9q24 10 24 28q0 16 -12 24q-13 8 -35 8q-15 0 -29 -3l24 78v1z" />
    <glyph glyph-name="egrave" unicode="&#xe8;" horiz-adv-x="550" 
d="M430 280h-2q-7 57 -49 94q-42 36 -98 36q-60 0 -102 -36q-43 -37 -53 -94h304zM279 -16h1q-108 0 -177 70t-69 182q0 103 71 176q71 72 175 72q110 0 174 -70t64 -184v-20h-397q5 -65 48 -107t111 -42q92 0 150 76l73 -40q-80 -113 -224 -113zM339 578l-1 -2l-39 -34
l-142 132l66 57l116 -154v1z" />
    <glyph glyph-name="eacute" unicode="&#xe9;" horiz-adv-x="550" 
d="M430 280h-2q-7 57 -49 94q-42 36 -98 36q-60 0 -102 -36q-43 -37 -53 -94h304zM279 -16h1q-108 0 -177 70t-69 182q0 103 71 176q71 72 175 72q110 0 174 -70t64 -184v-20h-397q5 -65 48 -107t111 -42q92 0 150 76l73 -40q-80 -113 -224 -113zM414 674h-1l-142 -132
l-39 34l116 154l66 -57v1z" />
    <glyph glyph-name="ecircumflex" unicode="&#xea;" horiz-adv-x="550" 
d="M430 280h-2q-7 57 -49 94q-42 36 -98 36q-60 0 -102 -36q-43 -37 -53 -94h304zM279 -16h1q-108 0 -177 70t-69 182q0 103 71 176q71 72 175 72q110 0 174 -70t64 -184v-20h-397q5 -65 48 -107t111 -42q92 0 150 76l73 -40q-80 -113 -224 -113zM439 590l-1 -1l-44 -48
l-113 102l-112 -102l-43 48l156 142l157 -142v1z" />
    <glyph glyph-name="edieresis" unicode="&#xeb;" horiz-adv-x="550" 
d="M430 280h-2q-7 57 -49 94q-42 36 -98 36q-60 0 -102 -36q-43 -37 -53 -94h304zM279 -16h1q-108 0 -177 70t-69 182q0 103 71 176q71 72 175 72q110 0 174 -70t64 -184v-20h-397q5 -65 48 -107t111 -42q92 0 150 76l73 -40q-80 -113 -224 -113zM390 696h-1q25 0 41 -18
q17 -19 17 -42q0 -24 -17 -41t-41 -17t-41 17q-18 17 -18 41t18 42t42 18zM171 697v-1q25 0 41 -18q17 -19 17 -42q0 -24 -17 -41t-41 -17q-23 0 -42 17q-18 17 -18 41t18 42t42 18v1z" />
    <glyph glyph-name="igrave" unicode="&#xec;" horiz-adv-x="237" 
d="M162 468v-468h-86v468h86zM185 578l-1 -2l-39 -34l-142 132l66 57l116 -154v1z" />
    <glyph glyph-name="iacute" unicode="&#xed;" horiz-adv-x="237" 
d="M162 468v-468h-86v468h86zM235 674h-1l-142 -132l-39 34l116 154l66 -57v1z" />
    <glyph glyph-name="icircumflex" unicode="&#xee;" horiz-adv-x="237" 
d="M162 468v-468h-86v468h86zM275 590l-1 -1l-44 -48l-113 102l-112 -102l-43 48l156 142l157 -142v1z" />
    <glyph glyph-name="idieresis" unicode="&#xef;" horiz-adv-x="237" 
d="M162 468v-468h-86v468h86zM229 696h-1q24 0 41 -18q17 -19 17 -42q0 -24 -17 -41t-41 -17t-41 17q-18 17 -18 41t18 42t42 18zM10 697v-1q24 0 41 -18q17 -19 17 -42q0 -24 -17 -41t-41 -17q-23 0 -42 17q-18 17 -18 41t18 42t42 18v1z" />
    <glyph glyph-name="eth" unicode="&#xf0;" horiz-adv-x="569" 
d="M342 624v-2q96 -99 144 -195t48 -190q0 -107 -73 -180t-177 -73t-177 73t-73 178q0 103 73 176q72 73 174 73q53 0 102 -26q-40 60 -106 124l-108 -70l-35 50l100 64q-43 40 -69 61l57 42q49 -38 76 -62l95 62l36 -49zM283 62h1q68 0 115 50q46 49 46 122q0 72 -46 121
q-47 50 -116 50q-68 0 -115 -50t-47 -122q0 -73 46 -122q47 -50 116 -50v1z" />
    <glyph glyph-name="ntilde" unicode="&#xf1;" horiz-adv-x="532" 
d="M467 -2l3 2h-86v290q0 60 -23 89q-24 28 -74 28q-70 0 -134 -85v-322h-86v468h86v-58q69 73 153 73q76 0 119 -48q42 -47 42 -125v-312zM446 698l-2 -2q-7 -55 -34 -88q-27 -31 -65 -31q-30 0 -78 27q-37 20 -52 20q-26 0 -34 -47h-64q7 55 34 88q26 32 62 32
q32 0 74 -24q41 -24 57 -24q26 0 36 48h66v1z" />
    <glyph glyph-name="ograve" unicode="&#xf2;" horiz-adv-x="569" 
d="M283 484h1q104 0 177 -73q72 -73 72 -176q0 -104 -73 -177q-74 -74 -177 -74t-177 74t-74 177q0 102 74 176q73 73 177 73zM284 61v1q69 0 116 50q46 49 46 122q0 72 -46 121q-47 50 -116 50q-68 0 -115 -50t-47 -122q0 -73 46 -122q47 -50 116 -50zM339 578l-1 -2
l-39 -34l-142 132l66 57l116 -154v1z" />
    <glyph glyph-name="oacute" unicode="&#xf3;" horiz-adv-x="569" 
d="M283 484h1q104 0 177 -73q72 -73 72 -176q0 -104 -73 -177q-74 -74 -177 -74t-177 74t-74 177q0 102 74 176q73 73 177 73zM284 61v1q69 0 116 50q46 49 46 122q0 72 -46 121q-47 50 -116 50q-68 0 -115 -50t-47 -122q0 -73 46 -122q47 -50 116 -50zM403 674h-1
l-142 -132l-39 34l116 154l66 -57v1z" />
    <glyph glyph-name="ocircumflex" unicode="&#xf4;" horiz-adv-x="569" 
d="M283 484h1q104 0 177 -73q72 -73 72 -176q0 -104 -73 -177q-74 -74 -177 -74t-177 74t-74 177q0 102 74 176q73 73 177 73zM284 61v1q69 0 116 50q46 49 46 122q0 72 -46 121q-47 50 -116 50q-68 0 -115 -50t-47 -122q0 -73 46 -122q47 -50 116 -50zM443 590l-1 -1
l-44 -48l-113 102l-112 -102l-43 48l156 142l157 -142v1z" />
    <glyph glyph-name="otilde" unicode="&#xf5;" horiz-adv-x="569" 
d="M283 484h1q104 0 177 -73q72 -73 72 -176q0 -104 -73 -177q-74 -74 -177 -74t-177 74t-74 177q0 102 74 176q73 73 177 73zM284 61v1q69 0 116 50q46 49 46 122q0 72 -46 121q-47 50 -116 50q-68 0 -115 -50t-47 -122q0 -73 46 -122q47 -50 116 -50zM450 698l-2 -2
q-7 -55 -34 -88q-27 -31 -65 -31q-30 0 -78 27q-37 20 -52 20q-26 0 -34 -47h-64q7 55 34 88q26 32 62 32q32 0 74 -24q41 -24 57 -24q26 0 36 48h66v1z" />
    <glyph glyph-name="odieresis" unicode="&#xf6;" horiz-adv-x="569" 
d="M283 484h1q104 0 177 -73q72 -73 72 -176q0 -104 -73 -177q-74 -74 -177 -74t-177 74t-74 177q0 102 74 176q73 73 177 73zM284 61v1q69 0 116 50q46 49 46 122q0 72 -46 121q-47 50 -116 50q-68 0 -115 -50t-47 -122q0 -73 46 -122q47 -50 116 -50zM395 696h-1
q24 0 41 -18q17 -19 17 -42q0 -24 -17 -41t-41 -17t-41 17q-18 17 -18 41t18 42t42 18zM176 697v-1q24 0 41 -18q17 -19 17 -42q0 -24 -17 -41t-41 -17q-23 0 -42 17q-18 17 -18 41t18 42t42 18v1z" />
    <glyph glyph-name="divide" unicode="&#xf7;" 
d="M288 600q24 0 42 -18t18 -42t-18 -42t-42 -18t-42 18t-18 42t18 42t42 18zM532 395v-79h-490v79h490zM288 233v-1q24 0 42 -18t18 -42t-18 -42t-42 -18t-42 18t-18 42t18 42t42 18v1z" />
    <glyph glyph-name="oslash" unicode="&#xf8;" horiz-adv-x="569" 
d="M547 444l-2 2l-60 -60q50 -67 50 -151q0 -104 -73 -177q-74 -74 -177 -74q-86 0 -153 52l-62 -60l-46 46l62 60q-51 71 -51 152q0 102 74 176q73 73 177 73q87 0 154 -52l61 60zM381 373l-1 2q-41 30 -95 30q-68 0 -115 -50t-47 -122q0 -51 24 -92zM188 95l2 -2
q40 -30 94 -30q69 0 116 50q46 49 46 122q0 51 -24 91l-234 -232v1z" />
    <glyph glyph-name="ugrave" unicode="&#xf9;" horiz-adv-x="526" 
d="M262 -16h1q-93 0 -147 54t-54 144v286h86v-284q0 -54 32 -89q31 -34 83 -34q50 0 81 34q32 35 32 88v284h86v-286q0 -89 -54 -143t-146 -54zM331 578l-1 -2l-39 -34l-142 132l66 57l116 -154v1z" />
    <glyph glyph-name="uacute" unicode="&#xfa;" horiz-adv-x="526" 
d="M262 -16h1q-93 0 -147 54t-54 144v286h86v-284q0 -54 32 -89q31 -34 83 -34q50 0 81 34q32 35 32 88v284h86v-286q0 -89 -54 -143t-146 -54zM389 674h-1l-142 -132l-39 34l116 154l66 -57v1z" />
    <glyph glyph-name="ucircumflex" unicode="&#xfb;" horiz-adv-x="526" 
d="M262 -16h1q-93 0 -147 54t-54 144v286h86v-284q0 -54 32 -89q31 -34 83 -34q50 0 81 34q32 35 32 88v284h86v-286q0 -89 -54 -143t-146 -54zM421 590l-1 -1l-44 -48l-113 102l-112 -102l-43 48l156 142l157 -142v1z" />
    <glyph glyph-name="udieresis" unicode="&#xfc;" horiz-adv-x="526" 
d="M262 -16h1q-93 0 -147 54t-54 144v286h86v-284q0 -54 32 -89q31 -34 83 -34q50 0 81 34q32 35 32 88v284h86v-286q0 -89 -54 -143t-146 -54zM373 696h-1q24 0 41 -18q17 -19 17 -42q0 -24 -17 -41t-41 -17t-41 17q-18 17 -18 41t18 42t42 18zM154 697v-1q24 0 41 -18
q17 -19 17 -42q0 -24 -17 -41t-41 -17q-23 0 -42 17q-18 17 -18 41t18 42t42 18v1z" />
    <glyph glyph-name="yacute" unicode="&#xfd;" horiz-adv-x="511" 
d="M508 468h-1l-318 -690h-89l114 248l-203 442h94l156 -348l157 348h90zM383 674h-1l-142 -132l-39 34l116 154l66 -57v1z" />
    <glyph glyph-name="thorn" unicode="&#xfe;" horiz-adv-x="600" 
d="M155 394l-1 2q29 38 77 62t96 24q107 0 174 -72q67 -71 67 -179q0 -101 -69 -175q-70 -73 -172 -73q-47 0 -94 24t-78 66v-297h-86v950h86v-332zM316 61v1q70 0 117 48q45 48 45 124q0 75 -44 124q-44 48 -118 48q-66 0 -114 -50t-48 -123q0 -72 48 -123q48 -50 114 -50
v1z" />
    <glyph glyph-name="ydieresis" unicode="&#xff;" horiz-adv-x="511" 
d="M508 468h-1l-318 -690h-89l114 248l-203 442h94l156 -348l157 348h90zM365 696h-1q24 0 41 -18q17 -19 17 -42q0 -24 -17 -41t-41 -17t-41 17q-18 17 -18 41t18 42t42 18zM146 697v-1q24 0 41 -18q17 -19 17 -42q0 -24 -17 -41t-41 -17q-23 0 -42 17q-18 17 -18 41t18 42
t42 18v1z" />
    <glyph glyph-name="Amacron" unicode="&#x100;" horiz-adv-x="685" 
d="M204 234h275l-139 326zM676 0h-1h-98l-64 152h-344l-64 -152h-94l302 712h59zM502 790v-1h-324v73h324v-73v1z" />
    <glyph glyph-name="amacron" unicode="&#x101;" horiz-adv-x="599" 
d="M285 64l-1 -2q66 0 114 50q47 50 47 124q0 72 -48 122t-114 50q-71 0 -115 -48q-45 -48 -45 -124q0 -75 44 -124q44 -48 118 -48zM445 -3l-1 3v72q-32 -41 -77 -64q-47 -24 -94 -24q-105 0 -173 72q-67 71 -67 179q0 102 69 174t171 72q47 0 94 -24t78 -66v74h86v-468
h-86zM462 601v-1h-324v73h324v-73v1z" />
    <glyph glyph-name="Abreve" unicode="&#x102;" horiz-adv-x="685" 
d="M204 234h275l-139 326zM676 0h-1h-98l-64 152h-344l-64 -152h-94l302 712h59zM490 904v-1q-14 -62 -55 -99q-43 -38 -94 -38t-94 38q-42 38 -56 100h60q11 -33 36 -52q26 -20 54 -20q31 0 54 19t36 52h59v1z" />
    <glyph glyph-name="abreve" unicode="&#x103;" horiz-adv-x="599" 
d="M285 64l-1 -2q66 0 114 50q47 50 47 124q0 72 -48 122t-114 50q-71 0 -115 -48q-45 -48 -45 -124q0 -75 44 -124q44 -48 118 -48zM445 -3l-1 3v72q-32 -41 -77 -64q-47 -24 -94 -24q-105 0 -173 72q-67 71 -67 179q0 102 69 174t171 72q47 0 94 -24t78 -66v74h86v-468
h-86zM450 707v-1q-14 -62 -55 -99q-43 -38 -94 -38t-94 38q-42 38 -56 100h60q11 -33 36 -52q26 -20 54 -20q31 0 54 19t36 52h59v1z" />
    <glyph glyph-name="Aogonek" unicode="&#x104;" horiz-adv-x="685" 
d="M204 234h275l-139 326zM580 0h-2h-1l-64 152h-344l-64 -152h-94l302 712h59l304 -712h-29q-47 -43 -61 -66t-14 -39q0 -24 16 -36t48 -12q23 0 48 5l-12 -56q-25 -5 -54 -5q-56 0 -82 22q-28 22 -28 66q0 59 72 120v1z" />
    <glyph glyph-name="aogonek" unicode="&#x105;" horiz-adv-x="599" 
d="M285 64l-1 -2q66 0 114 50q47 50 47 124q0 72 -48 122t-114 50q-71 0 -115 -48q-45 -48 -45 -124q0 -75 44 -124q44 -48 118 -48zM445 -3l-1 3v72q-32 -41 -77 -64q-47 -24 -94 -24q-105 0 -173 72q-67 71 -67 179q0 102 69 174t171 72q47 0 94 -24t78 -66v74h86v-468
h-86zM547 -148h1l-12 -56q-25 -5 -56 -5q-52 0 -80 22q-30 23 -30 65q0 30 18 60q17 29 54 61h68q-50 -44 -62 -66q-13 -22 -13 -39q0 -24 16 -36q17 -12 48 -12q28 0 48 5v1z" />
    <glyph glyph-name="Cacute" unicode="&#x106;" horiz-adv-x="668" 
d="M411 -14l1 -2q-161 0 -265 107q-105 108 -105 266q0 101 49 186q48 85 134 135t187 50q125 0 220 -55v-108q-104 74 -221 74q-115 0 -194 -82q-80 -83 -80 -200q0 -122 78 -203q77 -80 198 -80q115 0 218 72v-106q-103 -54 -220 -54zM517 898h-1l-142 -132l-39 34
l116 154l66 -57v1z" />
    <glyph glyph-name="cacute" unicode="&#x107;" horiz-adv-x="446" 
d="M286 -12l-2 -4q-108 0 -179 71q-70 71 -70 180q0 106 72 178t180 72q74 0 135 -31v-85q-62 38 -133 38q-73 0 -119 -48q-46 -47 -46 -122q0 -74 44 -123q44 -48 120 -48q67 0 134 38v-85q-63 -31 -136 -31zM399 674h-1l-142 -132l-39 34l116 154l66 -57v1z" />
    <glyph glyph-name="Ccircumflex" unicode="&#x108;" horiz-adv-x="668" 
d="M411 -14l1 -2q-161 0 -265 107q-105 108 -105 266q0 101 49 186q48 85 134 135t187 50q125 0 220 -55v-108q-104 74 -221 74q-115 0 -194 -82q-80 -83 -80 -200q0 -122 78 -203q77 -80 198 -80q115 0 218 72v-106q-103 -54 -220 -54zM563 815l-1 -1l-44 -48l-113 102
l-112 -102l-43 48l156 142l157 -142v1z" />
    <glyph glyph-name="ccircumflex" unicode="&#x109;" horiz-adv-x="446" 
d="M286 -12l-2 -4q-108 0 -179 71q-70 71 -70 180q0 106 72 178t180 72q74 0 135 -31v-85q-62 38 -133 38q-73 0 -119 -48q-46 -47 -46 -122q0 -74 44 -123q44 -48 120 -48q67 0 134 38v-85q-63 -31 -136 -31zM428 590l-1 -1l-44 -48l-113 102l-112 -102l-43 48l156 142
l157 -142v1z" />
    <glyph glyph-name="Cdotaccent" unicode="&#x10a;" horiz-adv-x="668" 
d="M411 -14l1 -2q-161 0 -265 107q-105 108 -105 266q0 101 49 186q48 85 134 135t187 50q125 0 220 -55v-108q-104 74 -221 74q-115 0 -194 -82q-80 -83 -80 -200q0 -122 78 -203q77 -80 198 -80q115 0 218 72v-106q-103 -54 -220 -54zM410 892v-1q28 0 47 -19t19 -45
t-19 -45t-47 -19q-26 0 -44 18q-18 19 -18 46t18 45q18 19 44 19v1z" />
    <glyph glyph-name="cdotaccent" unicode="&#x10b;" horiz-adv-x="446" 
d="M286 -12l-2 -4q-108 0 -179 71q-70 71 -70 180q0 106 72 178t180 72q74 0 135 -31v-85q-62 38 -133 38q-73 0 -119 -48q-46 -47 -46 -122q0 -74 44 -123q44 -48 120 -48q67 0 134 38v-85q-63 -31 -136 -31zM282 703v-1q28 0 47 -19t19 -45t-19 -45t-47 -19q-26 0 -44 18
q-18 20 -18 46q0 27 18 45q18 19 44 19v1z" />
    <glyph glyph-name="Ccaron" unicode="&#x10c;" horiz-adv-x="668" 
d="M411 -14l1 -2q-161 0 -265 107q-105 108 -105 266q0 101 49 186q48 85 134 135t187 50q125 0 220 -55v-108q-104 74 -221 74q-115 0 -194 -82q-80 -83 -80 -200q0 -122 78 -203q77 -80 198 -80q115 0 218 72v-106q-103 -54 -220 -54zM566 909v-1l-156 -142l-156 142
l44 47l112 -101l113 101l43 -47v1z" />
    <glyph glyph-name="ccaron" unicode="&#x10d;" horiz-adv-x="446" 
d="M286 -12l-2 -4q-108 0 -179 71q-70 71 -70 180q0 106 72 178t180 72q74 0 135 -31v-85q-62 38 -133 38q-73 0 -119 -48q-46 -47 -46 -122q0 -74 44 -123q44 -48 120 -48q67 0 134 38v-85q-63 -31 -136 -31zM432 685v-1l-156 -142l-156 142l44 47l112 -101l113 101l43 -47
v1z" />
    <glyph glyph-name="Dcaron" unicode="&#x10e;" horiz-adv-x="696" 
d="M80 711v1h194q172 0 276 -98q103 -97 103 -262t-106 -259t-288 -94h-179v712zM171 85l1 2h81q145 0 225 68q78 67 78 198t-80 202q-79 70 -223 70h-82v-540zM463 909v-1l-156 -142l-156 142l44 47l112 -101l113 101l43 -47v1z" />
    <glyph glyph-name="dcaron" unicode="&#x10f;" horiz-adv-x="750" 
d="M284 64v-2q66 0 114 50t48 124q0 72 -48 122t-114 50q-71 0 -116 -48q-46 -47 -46 -124q0 -75 44 -124q44 -48 118 -48zM445 -1l1 1v72q-29 -38 -77 -62t-96 -24q-105 0 -173 72q-67 71 -67 179q0 102 69 174t171 72q47 0 94 -24t78 -66v334h86v-728h-86zM642 620l-2 -2
q-45 10 -45 53q0 22 17 39t41 17q23 0 42 -17q18 -16 18 -39q0 -66 -72 -138h-47q43 55 48 86v1z" />
    <glyph glyph-name="Dcroat" unicode="&#x110;" horiz-adv-x="696" 
d="M80 400v312h194q172 0 276 -98q103 -97 103 -262t-106 -259t-288 -94h-179v318h-66v83h66zM171 87h1h81q145 0 225 68q78 67 78 198t-80 202q-79 70 -223 70h-82v-226h178v-83h-178v-230v1z" />
    <glyph glyph-name="dcroat" unicode="&#x111;" horiz-adv-x="600" 
d="M284 63v-1q66 0 114 50q47 50 47 123t-48 122q-48 50 -114 50q-73 0 -116 -48q-45 -48 -45 -124q0 -75 44 -124q44 -48 118 -48zM445 3l1 -3v72q-27 -38 -75 -63q-48 -24 -97 -24q-106 0 -173 72q-67 71 -67 180q0 103 69 175q67 72 170 72q53 0 96 -22t76 -66v156h-202
v74h202v104h86v-104h69v-74h-69v-550h-86v1z" />
    <glyph glyph-name="Emacron" unicode="&#x112;" horiz-adv-x="525" 
d="M488 -1v1h-408v712h398v-86h-306v-224h293v-86h-293v-230h316v-87zM442 790v-1h-324v73h324v-73v1z" />
    <glyph glyph-name="emacron" unicode="&#x113;" horiz-adv-x="550" 
d="M430 280h-2q-7 57 -49 94q-42 36 -98 36q-60 0 -102 -36q-43 -37 -53 -94h304zM279 -16h1q-108 0 -177 70t-69 182q0 103 71 176q71 72 175 72q110 0 174 -70t64 -184v-20h-397q5 -65 48 -107t111 -42q92 0 150 76l73 -40q-80 -113 -224 -113zM437 601v-1h-324v73h324
v-73v1z" />
    <glyph glyph-name="Ebreve" unicode="&#x114;" horiz-adv-x="525" 
d="M488 -1v1h-408v712h398v-86h-306v-224h293v-86h-293v-230h316v-87zM433 904v-1q-14 -62 -55 -99q-43 -38 -94 -38t-94 38q-42 38 -56 100h60q11 -33 36 -52q26 -20 54 -20q31 0 54 19t36 52h59v1z" />
    <glyph glyph-name="ebreve" unicode="&#x115;" horiz-adv-x="550" 
d="M430 280h-2q-7 57 -49 94q-42 36 -98 36q-60 0 -102 -36q-43 -37 -53 -94h304zM279 -16h1q-108 0 -177 70t-69 182q0 103 71 176q71 72 175 72q110 0 174 -70t64 -184v-20h-397q5 -65 48 -107t111 -42q92 0 150 76l73 -40q-80 -113 -224 -113zM425 707v-1
q-14 -62 -55 -99q-43 -38 -94 -38t-94 38q-42 38 -56 100h60q11 -33 36 -52q26 -20 54 -20q31 0 54 19t36 52h59v1z" />
    <glyph glyph-name="Edotaccent" unicode="&#x116;" horiz-adv-x="525" 
d="M488 -1v1h-408v712h398v-86h-306v-224h293v-86h-293v-230h316v-87zM292 892v-1q28 0 47 -19t19 -45t-19 -45t-47 -19q-26 0 -44 18q-18 19 -18 46t18 45q18 19 44 19v1z" />
    <glyph glyph-name="edotaccent" unicode="&#x117;" horiz-adv-x="550" 
d="M430 280h-2q-7 57 -49 94q-42 36 -98 36q-60 0 -102 -36q-43 -37 -53 -94h304zM279 -16h1q-108 0 -177 70t-69 182q0 103 71 176q71 72 175 72q110 0 174 -70t64 -184v-20h-397q5 -65 48 -107t111 -42q92 0 150 76l73 -40q-80 -113 -224 -113zM278 703v-1q28 0 47 -19
t19 -45t-19 -45t-47 -19q-26 0 -44 18q-18 20 -18 46q0 27 18 45q18 19 44 19v1z" />
    <glyph glyph-name="Eogonek" unicode="&#x118;" horiz-adv-x="525" 
d="M383 1v-1h-303v712h398v-86h-306v-224h293v-86h-293v-230h316v-87h-37q-56 -51 -65 -71q-10 -19 -10 -33q0 -24 16 -36t48 -12q28 0 48 5l-12 -56q-23 -5 -55 -5q-56 0 -82 22q-28 22 -28 66q0 30 18 60q17 29 54 61v1z" />
    <glyph glyph-name="eogonek" unicode="&#x119;" horiz-adv-x="550" 
d="M428 281v-1q-7 55 -49 92q-40 37 -99 37q-62 0 -104 -36q-41 -35 -52 -92h304zM243 -12l1 -1q-94 12 -153 80q-58 67 -58 170t71 176q70 72 175 72q110 0 174 -70t64 -185v-20h-397q2 -62 46 -106q43 -43 113 -43q92 0 150 76l73 -40q-72 -101 -193 -111q-59 -54 -59 -91
q0 -24 16 -36t48 -12q28 0 48 5l-12 -56q-23 -5 -55 -5q-56 0 -82 22q-28 22 -28 66q0 54 58 108v1z" />
    <glyph glyph-name="Ecaron" unicode="&#x11a;" horiz-adv-x="525" 
d="M488 -1v1h-408v712h398v-86h-306v-224h293v-86h-293v-230h316v-87zM419 909v-1l-156 -142l-156 142l44 47l112 -101l113 101l43 -47v1z" />
    <glyph glyph-name="ecaron" unicode="&#x11b;" horiz-adv-x="550" 
d="M430 280h-2q-7 57 -49 94q-42 36 -98 36q-60 0 -102 -36q-43 -37 -53 -94h304zM279 -16h1q-108 0 -177 70t-69 182q0 103 71 176q71 72 175 72q110 0 174 -70t64 -184v-20h-397q5 -65 48 -107t111 -42q92 0 150 76l73 -40q-80 -113 -224 -113zM432 685v-1l-156 -142
l-156 142l44 47l112 -101l113 101l43 -47v1z" />
    <glyph glyph-name="Gcircumflex" unicode="&#x11c;" horiz-adv-x="782" 
d="M744 327l2 -1q0 -152 -91 -246t-244 -94q-154 0 -262 108t-108 263q0 156 106 263q107 108 264 108q191 0 297 -144l-78 -55q-83 110 -219 110q-118 0 -196 -82q-78 -83 -78 -200q0 -121 78 -204q78 -82 196 -82q90 0 156 54t80 149h-192v85h289v-32zM571 815l-1 -1
l-44 -48l-113 102l-112 -102l-43 48l156 142l157 -142v1z" />
    <glyph glyph-name="gcircumflex" unicode="&#x11d;" horiz-adv-x="587" 
d="M516 14h2q0 -104 -66 -170t-180 -66q-90 0 -152 48t-73 123h85q9 -44 47 -70t94 -26q71 0 115 42t44 114v76q-31 -40 -75 -62q-48 -23 -92 -23q-103 0 -167 70q-65 71 -65 173q0 99 66 170q66 70 165 70q45 0 91 -23q42 -22 75 -64v72h86v-454zM279 76l-1 2q64 0 110 46
q45 46 45 116q0 69 -46 116q-46 48 -110 48q-69 0 -111 -46q-43 -46 -43 -120q0 -72 42 -117t114 -45zM451 590l-1 -1l-44 -48l-113 102l-112 -102l-43 48l156 142l157 -142v1z" />
    <glyph glyph-name="Gbreve" unicode="&#x11e;" horiz-adv-x="782" 
d="M744 327l2 -1q0 -152 -91 -246t-244 -94q-154 0 -262 108t-108 263q0 156 106 263q107 108 264 108q191 0 297 -144l-78 -55q-83 110 -219 110q-118 0 -196 -82q-78 -83 -78 -200q0 -121 78 -204q78 -82 196 -82q90 0 156 54t80 149h-192v85h289v-32zM562 904v-1
q-14 -62 -55 -99q-43 -38 -94 -38t-94 38q-42 38 -56 100h60q11 -33 36 -52q26 -20 54 -20q31 0 54 19t36 52h59v1z" />
    <glyph glyph-name="gbreve" unicode="&#x11f;" horiz-adv-x="587" 
d="M516 14h2q0 -104 -66 -170t-180 -66q-90 0 -152 48t-73 123h85q9 -44 47 -70t94 -26q71 0 115 42t44 114v76q-31 -40 -75 -62q-48 -23 -92 -23q-103 0 -167 70q-65 71 -65 173q0 99 66 170q66 70 165 70q45 0 91 -23q42 -22 75 -64v72h86v-454zM279 76l-1 2q64 0 110 46
q45 46 45 116q0 69 -46 116q-46 48 -110 48q-69 0 -111 -46q-43 -46 -43 -120q0 -72 42 -117t114 -45zM423 707v-1q-14 -62 -55 -99q-43 -38 -94 -38t-94 38q-42 38 -56 100h60q11 -33 36 -52q26 -20 54 -20q31 0 54 19t36 52h59v1z" />
    <glyph glyph-name="Gdotaccent" unicode="&#x120;" horiz-adv-x="782" 
d="M744 327l2 -1q0 -152 -91 -246t-244 -94q-154 0 -262 108t-108 263q0 156 106 263q107 108 264 108q191 0 297 -144l-78 -55q-83 110 -219 110q-118 0 -196 -82q-78 -83 -78 -200q0 -121 78 -204q78 -82 196 -82q90 0 156 54t80 149h-192v85h289v-32zM412 892v-1
q28 0 47 -19t19 -45t-19 -45t-47 -19q-26 0 -44 18q-18 19 -18 46t18 45q18 19 44 19v1z" />
    <glyph glyph-name="gdotaccent" unicode="&#x121;" horiz-adv-x="587" 
d="M516 14h2q0 -104 -66 -170t-180 -66q-90 0 -152 48t-73 123h85q9 -44 47 -70t94 -26q71 0 115 42t44 114v76q-31 -40 -75 -62q-48 -23 -92 -23q-103 0 -167 70q-65 71 -65 173q0 99 66 170q66 70 165 70q45 0 91 -23q42 -22 75 -64v72h86v-454zM279 76l-1 2q64 0 110 46
q45 46 45 116q0 69 -46 116q-46 48 -110 48q-69 0 -111 -46q-43 -46 -43 -120q0 -72 42 -117t114 -45zM272 703v-1q28 0 47 -19t19 -45t-19 -45t-47 -19q-26 0 -44 18q-18 20 -18 46q0 27 18 45q18 19 44 19v1z" />
    <glyph glyph-name="Gcommaaccent" unicode="&#x122;" horiz-adv-x="782" 
d="M744 327l2 -1q0 -152 -91 -246t-244 -94q-154 0 -262 108t-108 263q0 156 106 263q107 108 264 108q191 0 297 -144l-78 -55q-83 110 -219 110q-118 0 -196 -82q-78 -83 -78 -200q0 -121 78 -204q78 -82 196 -82q90 0 156 54t80 149h-192v85h289v-32zM402 -151v1
q-55 6 -55 53q0 23 18 39q17 17 43 17t44 -18t18 -44q0 -52 -58 -113h-50q27 30 40 65z" />
    <glyph glyph-name="gcommaaccent" unicode="&#x123;" horiz-adv-x="587" 
d="M520 14h-2q0 -105 -66 -171q-67 -65 -180 -65q-93 0 -154 49q-63 50 -71 122h85q8 -44 46 -70t96 -26q72 0 116 42t44 114v76q-31 -38 -75 -62q-46 -23 -91 -23q-103 0 -167 70q-65 71 -65 174q0 100 66 170t165 70q52 0 93 -22q43 -23 74 -66v72h86v-454zM278 78
q64 0 109 46t45 117q0 70 -46 117q-46 48 -110 48q-70 0 -112 -46t-42 -120q0 -75 42 -118q42 -44 114 -44zM280 688h-2h48q-28 -24 -46 -55q56 -6 56 -54q0 -23 -18 -39q-17 -16 -44 -16q-24 0 -42 18t-18 42q0 46 66 103v1z" />
    <glyph glyph-name="Hcircumflex" unicode="&#x124;" horiz-adv-x="712" 
d="M632 712v-712h-92v332h-368v-332h-92v712h92v-298h368v298h92zM513 815l-1 -1l-44 -48l-113 102l-112 -102l-43 48l156 142l157 -142v1z" />
    <glyph glyph-name="hcircumflex" unicode="&#x125;" horiz-adv-x="532" 
d="M467 -2l3 2h-86v290q0 60 -23 89q-24 28 -74 28q-70 0 -134 -85v-322h-86v728h86v-318q69 73 153 73q76 0 119 -48q42 -47 42 -125v-312zM423 830l-1 -1l-44 -48l-113 102l-112 -102l-43 48l156 142l157 -142v1z" />
    <glyph glyph-name="Hbar" unicode="&#x126;" horiz-adv-x="712" 
d="M686 606v-78h-54v-528h-92v332h-368v-332h-92v528h-54v78h54v106h92v-106h368v106h92v-106h54zM540 415v-1v113h-368v-113h368v1z" />
    <glyph glyph-name="hbar" unicode="&#x127;" horiz-adv-x="532" 
d="M386 0h-2v290q0 58 -24 87q-24 30 -72 30q-71 0 -132 -85v-322h-86v564h-61v66h61v97h86v-97h196v-66h-196v-154q70 73 154 73q75 0 118 -46q44 -47 44 -126v-312h-86v1z" />
    <glyph glyph-name="Itilde" unicode="&#x128;" horiz-adv-x="252" 
d="M172 712v-712h-92v712h92zM292 888l-2 -2q-7 -55 -34 -88q-27 -31 -65 -31q-30 0 -78 27q-37 20 -52 20q-26 0 -34 -47h-64q7 55 34 88q26 32 62 32q32 0 74 -24q41 -24 57 -24q26 0 36 48h66v1z" />
    <glyph glyph-name="itilde" unicode="&#x129;" horiz-adv-x="237" 
d="M162 468v-468h-86v468h86zM284 698l-2 -2q-7 -55 -34 -88q-27 -31 -65 -31q-30 0 -78 27q-37 20 -52 20q-26 0 -34 -47h-64q7 55 34 88q26 32 62 32q32 0 74 -24q41 -24 57 -24q26 0 36 48h66v1z" />
    <glyph glyph-name="uni012A" unicode="&#x12a;" horiz-adv-x="252" 
d="M172 712v-712h-92v712h92zM288 790v-1h-324v73h324v-73v1z" />
    <glyph glyph-name="imacron" unicode="&#x12b;" horiz-adv-x="237" 
d="M162 468v-468h-86v468h86zM280 601v-1h-324v73h324v-73v1z" />
    <glyph glyph-name="Ibreve" unicode="&#x12c;" horiz-adv-x="252" 
d="M172 712v-712h-92v712h92zM276 904v-1q-14 -62 -55 -99q-43 -38 -94 -38t-94 38q-42 38 -56 100h60q11 -33 36 -52q26 -20 54 -20q31 0 54 19t36 52h59v1z" />
    <glyph glyph-name="uni012D" unicode="&#x12d;" horiz-adv-x="237" 
d="M162 468v-468h-86v468h86zM268 707v-1q-14 -62 -55 -99q-43 -38 -94 -38t-94 38q-42 38 -56 100h60q11 -33 36 -52q26 -20 54 -20q31 0 54 19t36 52h59v1z" />
    <glyph glyph-name="Iogonek" unicode="&#x12e;" horiz-adv-x="252" 
d="M105 1l-1 -1h-24v712h92v-712l-46 -44q-13 -13 -20 -28q-8 -18 -8 -32q0 -24 16 -36t48 -12q28 0 48 5l-12 -56q-23 -5 -55 -5q-55 0 -83 22t-28 66q0 59 73 120v1z" />
    <glyph glyph-name="iogonek" unicode="&#x12f;" horiz-adv-x="237" 
d="M119 696q25 0 41 -18q16 -16 16 -42t-16 -42t-41 -16t-42 17q-18 17 -18 41t18 42t42 18zM94 1v-1h-18v468h86v-468q-56 -56 -65 -74q-10 -17 -10 -30q0 -24 16 -36q17 -12 48 -12q23 0 48 5l-12 -56q-23 -5 -55 -5q-56 0 -82 22q-28 22 -28 66q0 58 72 120v1z" />
    <glyph glyph-name="Idotaccent" unicode="&#x130;" horiz-adv-x="252" 
d="M172 712v-712h-92v712h92zM125 892v-1q28 0 47 -19t19 -45t-19 -45t-47 -19q-26 0 -44 18q-18 19 -18 46t18 45q18 19 44 19v1z" />
    <glyph glyph-name="dotlessi" unicode="&#x131;" horiz-adv-x="237" 
d="M162 1v-1h-86v468h86v-468v1z" />
    <glyph glyph-name="IJ" unicode="&#x132;" horiz-adv-x="638" 
d="M172 712v-712h-92v712h92zM561 196l1 -2q0 -102 -45 -156q-45 -53 -131 -53q-117 0 -183 102l68 56q47 -71 107 -71q46 0 69 32q22 32 22 99v511h92v-519v1z" />
    <glyph glyph-name="ij" unicode="&#x133;" horiz-adv-x="473" 
d="M119 696q25 0 41 -18q17 -19 17 -42q0 -24 -17 -41t-41 -17q-25 0 -42 17q-18 17 -18 41t18 42t42 18zM162 468v-468h-86v468h86zM356 696q24 0 41 -18q17 -19 17 -42q0 -24 -17 -41t-41 -17q-25 0 -42 17q-18 17 -18 41t18 42t42 18zM398 -27v1q0 -92 -40 -144t-116 -52
h-15v76q43 0 64 28t21 99v486h86v-494z" />
    <glyph glyph-name="Jcircumflex" unicode="&#x134;" horiz-adv-x="446" 
d="M371 195l1 -1q0 -102 -45 -156q-45 -53 -131 -53q-117 0 -183 102l68 56q47 -71 107 -71q46 0 69 32q22 32 22 99v511h92v-519zM483 815l-1 -1l-44 -48l-113 102l-112 -102l-43 48l156 142l157 -142v1z" />
    <glyph glyph-name="jcircumflex" unicode="&#x135;" horiz-adv-x="237" 
d="M118 731l156 -142l-44 -48l-112 102l-113 -102l-43 48zM162 -25v-1q0 -92 -40 -144t-116 -52h-15v76q41 0 64 32q21 32 21 96v486h86v-494v1z" />
    <glyph glyph-name="Kcommaaccent" unicode="&#x136;" horiz-adv-x="631" 
d="M270 366l350 -366h-122l-326 347v-347h-92v712h92v-332l324 332h116zM318 -151v1q-55 6 -55 53q0 23 18 39q17 17 43 17t44 -18t18 -44q0 -52 -58 -113h-50q27 30 40 65z" />
    <glyph glyph-name="kcommaaccent" unicode="&#x137;" horiz-adv-x="472" 
d="M466 0h1h-110l-203 242v-242h-86v728h86v-460l196 200h110l-214 -212zM234 -151v1q-55 6 -55 53q0 23 18 39q17 17 43 17t44 -18t18 -44q0 -52 -58 -113h-50q27 30 40 65z" />
    <glyph glyph-name="kgreenlandic" unicode="&#x138;" horiz-adv-x="472" 
d="M466 1l1 -1h-110l-203 242v-242h-86v468h86v-200l196 200h110l-214 -212l220 -256v1z" />
    <glyph glyph-name="Lacute" unicode="&#x139;" horiz-adv-x="496" 
d="M488 -1v1h-408v712h92v-626h316v-87zM366 898h-1l-142 -132l-39 34l116 154l66 -57v1z" />
    <glyph glyph-name="lacute" unicode="&#x13a;" horiz-adv-x="223" 
d="M154 728v-728h-86v728h86zM239 914h-1l-142 -132l-39 34l116 154l66 -57v1z" />
    <glyph glyph-name="Lcommaaccent" unicode="&#x13b;" horiz-adv-x="496" 
d="M488 -1v1h-408v712h92v-626h316v-87zM285 -151v1q-55 6 -55 53q0 23 18 39q17 17 43 17t44 -18t18 -44q0 -52 -58 -113h-50q27 30 40 65z" />
    <glyph glyph-name="lcommaaccent" unicode="&#x13c;" horiz-adv-x="223" 
d="M154 728v-728h-86v728h86zM110 -151v1q-55 6 -55 53q0 23 18 39q17 17 43 17t44 -18t18 -44q0 -52 -58 -113h-50q27 30 40 65z" />
    <glyph glyph-name="Lcaron" unicode="&#x13d;" horiz-adv-x="496" 
d="M488 -1v1h-408v712h92v-626h316v-87zM319 620l-2 -2q-45 10 -45 53q0 22 17 39t41 17q23 0 42 -17q18 -16 18 -39q0 -66 -72 -138h-47q43 55 48 86v1z" />
    <glyph glyph-name="lcaron" unicode="&#x13e;" horiz-adv-x="385" 
d="M154 728v-728h-86v728h86zM263 620l-2 -2q-45 10 -45 53q0 22 17 39t41 17q23 0 42 -17q18 -16 18 -39q0 -66 -72 -138h-47q43 55 48 86v1z" />
    <glyph glyph-name="Ldot" unicode="&#x13f;" horiz-adv-x="496" 
d="M488 -1v1h-408v712h92v-626h316v-87zM322 429v-1q28 0 47 -19t19 -45t-19 -45t-47 -19q-26 0 -44 18q-18 20 -18 46q0 27 18 45q18 19 44 19v1z" />
    <glyph glyph-name="ldot" unicode="&#x140;" horiz-adv-x="354" 
d="M154 728v-728h-86v728h86zM256 441v-1q28 0 47 -19t19 -45t-19 -45t-47 -19q-26 0 -44 18q-18 19 -18 46t18 45q18 19 44 19v1z" />
    <glyph glyph-name="Lslash" unicode="&#x141;" horiz-adv-x="496" 
d="M488 -1v1h-408v250l-74 -50v96l74 49v366h92v-304l168 112v-96l-168 -112v-226h316v-87v1z" />
    <glyph glyph-name="lslash" unicode="&#x142;" horiz-adv-x="223" 
d="M223 412v-2l-68 -49v-360h-86v298l-68 -49v89l68 49v341h86v-278l68 49v-89v1z" />
    <glyph glyph-name="Nacute" unicode="&#x143;" horiz-adv-x="735" 
d="M657 0h-1h-66l-420 540v-540h-89v712h66l421 -540v540h89v-712zM496 898h-1l-142 -132l-39 34l116 154l66 -57v1z" />
    <glyph glyph-name="nacute" unicode="&#x144;" horiz-adv-x="532" 
d="M467 -2l3 2h-86v290q0 60 -23 89q-24 28 -74 28q-70 0 -134 -85v-322h-86v468h86v-58q69 73 153 73q76 0 119 -48q42 -47 42 -125v-312zM393 674h-1l-142 -132l-39 34l116 154l66 -57v1z" />
    <glyph glyph-name="Ncommaaccent" unicode="&#x145;" horiz-adv-x="735" 
d="M657 0h-1h-66l-420 540v-540h-89v712h66l421 -540v540h89v-712zM360 -151v1q-55 6 -55 53q0 23 18 39q17 17 43 17t44 -18t18 -44q0 -52 -58 -113h-50q27 30 40 65z" />
    <glyph glyph-name="ncommaaccent" unicode="&#x146;" horiz-adv-x="532" 
d="M467 -2l3 2h-86v290q0 60 -23 89q-24 28 -74 28q-70 0 -134 -85v-322h-86v468h86v-58q69 73 153 73q76 0 119 -48q42 -47 42 -125v-312zM258 -151v1q-55 6 -55 53q0 23 18 39q17 17 43 17t44 -18t18 -44q0 -52 -58 -113h-50q27 30 40 65z" />
    <glyph glyph-name="Ncaron" unicode="&#x147;" horiz-adv-x="735" 
d="M657 0h-1h-66l-420 540v-540h-89v712h66l421 -540v540h89v-712zM524 909v-1l-156 -142l-156 142l44 47l112 -101l113 101l43 -47v1z" />
    <glyph glyph-name="ncaron" unicode="&#x148;" horiz-adv-x="532" 
d="M467 -2l3 2h-86v290q0 60 -23 89q-24 28 -74 28q-70 0 -134 -85v-322h-86v468h86v-58q69 73 153 73q76 0 119 -48q42 -47 42 -125v-312zM422 685v-1l-156 -142l-156 142l44 47l112 -101l113 101l43 -47v1z" />
    <glyph glyph-name="napostrophe" unicode="&#x149;" horiz-adv-x="654" 
d="M588 -2l3 2h-86v290q0 60 -23 89q-24 28 -74 28q-70 0 -134 -85v-322h-86v468h86v-58q69 73 153 73q75 0 119 -48q42 -47 42 -125v-312zM106 608h4q-48 14 -48 58q0 24 18 42t42 18t42 -18t18 -42q0 -58 -76 -161h-50q39 63 50 102v1z" />
    <glyph glyph-name="Eng" unicode="&#x14a;" horiz-adv-x="712" 
d="M630 196l2 -2q0 -104 -42 -156t-126 -52q-86 0 -154 74l68 56q43 -46 83 -46q34 0 55 23q21 24 21 110v266q0 86 -41 130q-42 44 -102 44q-46 0 -97 -17q-48 -16 -126 -85v-538h-92v712h92v-85q72 62 126 81q53 19 110 19q103 0 163 -74t60 -174v-287v1z" />
    <glyph glyph-name="eng" unicode="&#x14b;" horiz-adv-x="544" 
d="M364 -113l-1 -1q21 32 21 96v308q0 58 -24 87q-24 30 -72 30q-71 0 -132 -85v-322h-86v468h86v-58q70 73 154 73q75 0 119 -47q43 -46 43 -125v-337q0 -92 -40 -144t-116 -52h-16v76q41 0 64 32v1z" />
    <glyph glyph-name="Omacron" unicode="&#x14c;" horiz-adv-x="826" 
d="M411 728h1q154 0 262 -109q108 -110 108 -263q0 -100 -50 -186t-136 -136t-186 -50q-154 0 -262 109t-108 263q0 100 50 186q50 87 135 136q86 50 186 50zM412 74q116 0 195 82t79 200t-78 200t-196 82q-116 0 -195 -82q-80 -83 -80 -200t80 -200q79 -82 195 -82z
M576 790v-1h-324v73h324v-73v1z" />
    <glyph glyph-name="omacron" unicode="&#x14d;" horiz-adv-x="569" 
d="M283 484h1q104 0 177 -73q72 -73 72 -176q0 -104 -73 -177q-74 -74 -177 -74t-177 74t-74 177q0 102 74 176q73 73 177 73zM284 61v1q69 0 116 50q46 49 46 122q0 72 -46 121q-47 50 -116 50q-68 0 -115 -50t-47 -122q0 -73 46 -122q47 -50 116 -50zM446 601v-1h-324v73
h324v-73v1z" />
    <glyph glyph-name="Obreve" unicode="&#x14e;" horiz-adv-x="826" 
d="M411 728h1q154 0 262 -109q108 -110 108 -263q0 -100 -50 -186t-136 -136t-186 -50q-154 0 -262 109t-108 263q0 100 50 186q50 87 135 136q86 50 186 50zM412 74q116 0 195 82t79 200t-78 200t-196 82q-116 0 -195 -82q-80 -83 -80 -200t80 -200q79 -82 195 -82z
M562 904v-1q-14 -62 -55 -99q-43 -38 -94 -38t-94 38q-42 38 -56 100h60q11 -33 36 -52q26 -20 54 -20q31 0 54 19t36 52h59v1z" />
    <glyph glyph-name="obreve" unicode="&#x14f;" horiz-adv-x="569" 
d="M283 484h1q104 0 177 -73q72 -73 72 -176q0 -104 -73 -177q-74 -74 -177 -74t-177 74t-74 177q0 102 74 176q73 73 177 73zM284 61v1q69 0 116 50q46 49 46 122q0 72 -46 121q-47 50 -116 50q-68 0 -115 -50t-47 -122q0 -73 46 -122q47 -50 116 -50zM434 707v-1
q-14 -62 -55 -99q-43 -38 -94 -38t-94 38q-42 38 -56 100h60q11 -33 36 -52q26 -20 54 -20q31 0 54 19t36 52h59v1z" />
    <glyph glyph-name="Ohungarumlaut" unicode="&#x150;" horiz-adv-x="826" 
d="M411 728h1q154 0 262 -109q108 -110 108 -263q0 -100 -50 -186t-136 -136t-186 -50q-154 0 -262 109t-108 263q0 100 50 186q50 87 135 136q86 50 186 50zM412 74q116 0 195 82t79 200t-78 200t-196 82q-116 0 -195 -82q-80 -83 -80 -200t80 -200q79 -82 195 -82z
M639 897l-2 1l-142 -132l-38 34l116 154zM443 898h-1l-142 -132l-39 34l116 154l66 -57v1z" />
    <glyph glyph-name="ohungarumlaut" unicode="&#x151;" horiz-adv-x="569" 
d="M283 484h1q104 0 177 -73q72 -73 72 -176q0 -104 -73 -177q-74 -74 -177 -74t-177 74t-74 177q0 102 74 176q73 73 177 73zM284 61v1q69 0 116 50q46 49 46 122q0 72 -46 121q-47 50 -116 50q-68 0 -115 -50t-47 -122q0 -73 46 -122q47 -50 116 -50zM510 673l-2 1
l-142 -132l-38 34l116 154zM315 674h-1l-142 -132l-39 34l116 154l66 -57v1z" />
    <glyph glyph-name="OE" unicode="&#x152;" horiz-adv-x="1103" 
d="M1065 -4l1 4h-406v112q-107 -128 -261 -128q-151 0 -254 108q-104 109 -104 263q0 100 47 186q46 85 129 135q82 49 180 49q160 0 262 -126v110h396v-86h-304v-224h291v-86h-291v-230h314v-87zM399 76l1 -2q113 0 186 82q74 83 74 202t-74 202q-73 82 -188 82
q-114 0 -187 -82q-74 -82 -74 -201t74 -202q73 -82 188 -82v1z" />
    <glyph glyph-name="oe" unicode="&#x153;" horiz-adv-x="961" 
d="M928 209h2h-398q4 -64 48 -106t111 -42q91 0 149 76l73 -40q-83 -113 -223 -113q-133 0 -204 110q-77 -110 -204 -110q-104 0 -177 73t-73 178q0 102 74 176q73 73 177 73q62 0 116 -30q53 -30 88 -84q72 113 202 113q111 0 175 -70t64 -184v-20zM839 280h-1
q-7 57 -49 94q-41 36 -98 36q-60 0 -102 -36t-54 -94h304zM284 63v-1q68 0 115 50q46 49 46 122t-46 122q-47 50 -115 50t-115 -50t-47 -122q0 -73 46 -122q47 -50 116 -50v1z" />
    <glyph glyph-name="Racute" unicode="&#x154;" horiz-adv-x="574" 
d="M569 0h1h-116l-230 286h-51v-286h-92v712h190q115 0 179 -57t64 -151q0 -82 -48 -138t-135 -72zM171 369l1 1h94q72 0 114 36q41 36 41 98q0 58 -42 90q-43 32 -112 32h-96v-257zM401 898h-1l-142 -132l-39 34l116 154l66 -57v1z" />
    <glyph glyph-name="racute" unicode="&#x155;" horiz-adv-x="345" 
d="M336 477l-10 -92q-27 7 -49 7q-70 0 -124 -80v-312h-86v468h86v-72q65 87 137 87q26 0 46 -6zM301 674h-1l-142 -132l-39 34l116 154l66 -57v1z" />
    <glyph glyph-name="Rcommaaccent" unicode="&#x156;" horiz-adv-x="574" 
d="M569 0h1h-116l-230 286h-51v-286h-92v712h190q115 0 179 -57t64 -151q0 -82 -48 -138t-135 -72zM171 369l1 1h94q72 0 114 36q41 36 41 98q0 58 -42 90q-43 32 -112 32h-96v-257zM285 -151v1q-55 6 -55 53q0 23 18 39q17 17 43 17t44 -18t18 -44q0 -52 -58 -113h-50
q27 30 40 65z" />
    <glyph glyph-name="rcommaaccent" unicode="&#x157;" horiz-adv-x="345" 
d="M336 477l-10 -92q-27 7 -49 7q-70 0 -124 -80v-312h-86v468h86v-72q65 87 137 87q26 0 46 -6zM172 -151v1q-55 6 -55 53q0 23 18 39q17 17 43 17t44 -18t18 -44q0 -52 -58 -113h-50q27 30 40 65z" />
    <glyph glyph-name="Rcaron" unicode="&#x158;" horiz-adv-x="574" 
d="M569 0h1h-116l-230 286h-51v-286h-92v712h190q115 0 179 -57t64 -151q0 -82 -48 -138t-135 -72zM171 369l1 1h94q72 0 114 36q41 36 41 98q0 58 -42 90q-43 32 -112 32h-96v-257zM434 909v-1l-156 -142l-156 142l44 47l112 -101l113 101l43 -47v1z" />
    <glyph glyph-name="rcaron" unicode="&#x159;" horiz-adv-x="345" 
d="M336 477l-10 -92q-27 7 -49 7q-70 0 -124 -80v-312h-86v468h86v-72q65 87 137 87q26 0 46 -6zM329 685v-1l-156 -142l-156 142l44 47l112 -101l113 101l43 -47v1z" />
    <glyph glyph-name="Sacute" unicode="&#x15a;" horiz-adv-x="518" 
d="M255 -17l4 1q-61 0 -128 26q-64 25 -112 68l58 72q88 -79 183 -79q63 0 98 31q36 32 36 84q0 41 -31 69q-32 29 -111 59q-136 53 -172 104q-38 53 -38 120q0 81 66 135q64 54 162 54q106 0 201 -62l-46 -78q-83 53 -160 53q-57 0 -92 -28q-36 -28 -36 -73q0 -44 29 -73
q26 -26 98 -56q144 -58 183 -108q38 -50 38 -115q0 -93 -66 -148q-68 -56 -164 -56zM387 898h-1l-142 -132l-39 34l116 154l66 -57v1z" />
    <glyph glyph-name="sacute" unicode="&#x15b;" horiz-adv-x="399" 
d="M197 -18l1 2q-99 0 -180 60l47 66q65 -50 133 -50q42 0 61 16q20 17 20 48q0 21 -16 37q-17 17 -66 36q-107 43 -135 78q-28 34 -28 78q0 56 46 92q47 36 122 36q76 0 153 -40l-35 -73q-62 38 -120 38q-38 0 -58 -14t-20 -38q0 -20 20 -37q16 -14 82 -41q94 -38 119 -72
q26 -35 26 -78q0 -63 -47 -104q-46 -40 -125 -40zM327 674h-1l-142 -132l-39 34l116 154l66 -57v1z" />
    <glyph glyph-name="Scircumflex" unicode="&#x15c;" horiz-adv-x="518" 
d="M255 -17l4 1q-61 0 -128 26q-64 25 -112 68l58 72q88 -79 183 -79q63 0 98 31q36 32 36 84q0 41 -31 69q-32 29 -111 59q-136 53 -172 104q-38 53 -38 120q0 81 66 135q64 54 162 54q106 0 201 -62l-46 -78q-83 53 -160 53q-57 0 -92 -28q-36 -28 -36 -73q0 -44 29 -73
q26 -26 98 -56q144 -58 183 -108q38 -50 38 -115q0 -93 -66 -148q-68 -56 -164 -56zM430 815l-1 -1l-44 -48l-113 102l-112 -102l-43 48l156 142l157 -142v1z" />
    <glyph glyph-name="scircumflex" unicode="&#x15d;" horiz-adv-x="399" 
d="M197 -18l1 2q-99 0 -180 60l47 66q65 -50 133 -50q42 0 61 16q20 17 20 48q0 21 -16 37q-17 17 -66 36q-107 43 -135 78q-28 34 -28 78q0 56 46 92q47 36 122 36q76 0 153 -40l-35 -73q-62 38 -120 38q-38 0 -58 -14t-20 -38q0 -20 20 -37q16 -14 82 -41q94 -38 119 -72
q26 -35 26 -78q0 -63 -47 -104q-46 -40 -125 -40zM357 590l-1 -1l-44 -48l-113 102l-112 -102l-43 48l156 142l157 -142v1z" />
    <glyph glyph-name="Scedilla" unicode="&#x15e;" horiz-adv-x="519" 
d="M231 -8l3 -6q-61 6 -116 29q-53 24 -100 66l58 72q88 -79 183 -79q61 0 99 30q36 32 36 85q0 40 -31 68q-31 29 -111 60q-134 53 -171 104q-38 53 -38 122q0 82 66 136t162 54q105 0 202 -62l-46 -78q-80 53 -160 53q-57 0 -92 -28q-36 -28 -36 -74q0 -43 29 -72
q28 -27 98 -56q144 -58 183 -108q38 -50 38 -115q0 -86 -58 -140q-59 -55 -149 -62l-10 -34q80 0 80 -70q0 -42 -39 -66q-41 -24 -109 -24q-35 0 -58 4l8 54l34 -2q98 0 98 37q0 30 -46 30q-15 0 -29 -3l22 74v1z" />
    <glyph glyph-name="scedilla" unicode="&#x15f;" horiz-adv-x="399" 
d="M171 -14h3q-87 8 -156 59l47 66q62 -50 133 -50q42 0 61 16q20 17 20 48q0 21 -16 37q-17 16 -66 36q-105 42 -133 76q-29 35 -29 78q0 57 46 93q47 36 122 36t152 -40l-35 -73q-62 38 -120 38q-41 0 -60 -13q-20 -14 -20 -39q0 -20 20 -37q18 -16 81 -40q95 -37 120 -72
q26 -35 26 -78q0 -61 -40 -98q-41 -38 -108 -44l-10 -34q80 0 80 -70q0 -42 -39 -66q-41 -24 -109 -24q-35 0 -58 4l8 54l34 -2q98 0 98 37q0 30 -46 30q-15 0 -29 -3l23 74v1z" />
    <glyph glyph-name="Scaron" unicode="&#x160;" horiz-adv-x="518" 
d="M255 -17l4 1q-61 0 -128 26q-64 25 -112 68l58 72q88 -79 183 -79q63 0 98 31q36 32 36 84q0 41 -31 69q-32 29 -111 59q-136 53 -172 104q-38 53 -38 120q0 81 66 135q64 54 162 54q106 0 201 -62l-46 -78q-83 53 -160 53q-57 0 -92 -28q-36 -28 -36 -73q0 -44 29 -73
q26 -26 98 -56q144 -58 183 -108q38 -50 38 -115q0 -93 -66 -148q-68 -56 -164 -56zM421 911v-1l-156 -142l-156 142l44 47l112 -101l113 101l43 -47v1z" />
    <glyph glyph-name="scaron" unicode="&#x161;" horiz-adv-x="399" 
d="M197 -18l1 2q-99 0 -180 60l47 66q65 -50 133 -50q42 0 61 16q20 17 20 48q0 21 -16 37q-17 17 -66 36q-107 43 -135 78q-28 34 -28 78q0 56 46 92q47 36 122 36q76 0 153 -40l-35 -73q-62 38 -120 38q-38 0 -58 -14t-20 -38q0 -20 20 -37q16 -14 82 -41q94 -38 119 -72
q26 -35 26 -78q0 -63 -47 -104q-46 -40 -125 -40zM354 685v-1l-156 -142l-156 142l44 47l112 -101l113 101l43 -47v1z" />
    <glyph glyph-name="Tcommaaccent" unicode="&#x162;" horiz-adv-x="510" 
d="M499 626h-1h-196v-626h-92v626h-196v87h485v-87zM250 -151v1q-55 6 -55 53q0 23 18 39q17 17 43 17t44 -18t18 -44q0 -52 -58 -113h-50q27 30 40 65z" />
    <glyph glyph-name="tcommaaccent" unicode="&#x163;" horiz-adv-x="294" 
d="M278 468v-74h-91v-394h-86v394h-84v74h84v158h86v-158h91zM138 -151v1q-55 6 -55 53q0 23 18 39q17 17 43 17t44 -18t18 -44q0 -52 -58 -113h-50q27 30 40 65z" />
    <glyph glyph-name="Tcaron" unicode="&#x164;" horiz-adv-x="510" 
d="M499 626h-1h-196v-626h-92v626h-196v87h485v-87zM412 909v-1l-156 -142l-156 142l44 47l112 -101l113 101l43 -47v1z" />
    <glyph glyph-name="tcaron" unicode="&#x165;" horiz-adv-x="419" 
d="M278 468v-74h-91v-394h-86v394h-84v74h84v158h86v-158h91zM313 620l-2 -2q-45 10 -45 53q0 22 17 39t41 17q23 0 42 -17q18 -16 18 -39q0 -66 -72 -138h-47q43 55 48 86v1z" />
    <glyph glyph-name="Tbar" unicode="&#x166;" horiz-adv-x="510" 
d="M499 627l-1 -1h-196v-234h156v-76h-156v-316h-92v316h-157v76h157v234h-196v87h485v-87v1z" />
    <glyph glyph-name="tbar" unicode="&#x167;" horiz-adv-x="294" 
d="M278 248v-1h-91v-247h-86v247h-84v74h84v74h-84v74h84v158h86v-158h91v-74h-91v-74h91v-74v1z" />
    <glyph glyph-name="Utilde" unicode="&#x168;" horiz-adv-x="685" 
d="M340 -17l2 1q-120 0 -194 72t-74 195v460h92v-456q0 -92 51 -137q50 -44 124 -44q79 0 129 47q48 48 48 134v456h92v-460q0 -122 -73 -195t-197 -73zM509 888l-2 -2q-7 -55 -34 -88q-27 -31 -65 -31q-30 0 -78 27q-37 20 -52 20q-26 0 -34 -47h-64q7 55 34 88
q26 32 62 32q32 0 74 -24q40 -24 57 -24q25 0 36 48h66v1z" />
    <glyph glyph-name="utilde" unicode="&#x169;" horiz-adv-x="526" 
d="M262 -16h1q-93 0 -147 54t-54 144v286h86v-284q0 -54 32 -89q31 -34 83 -34q50 0 81 34q32 35 32 88v284h86v-286q0 -89 -54 -143t-146 -54zM429 698l-2 -2q-7 -55 -34 -88q-27 -31 -65 -31q-30 0 -78 27q-37 20 -52 20q-26 0 -34 -47h-64q7 55 34 88q26 32 62 32
q32 0 74 -24q40 -24 57 -24q25 0 36 48h66v1z" />
    <glyph glyph-name="Umacron" unicode="&#x16a;" horiz-adv-x="685" 
d="M340 -17l2 1q-120 0 -194 72t-74 195v460h92v-456q0 -92 51 -137q50 -44 124 -44q79 0 129 47q48 48 48 134v456h92v-460q0 -122 -73 -195t-197 -73zM505 790v-1h-324v73h324v-73v1z" />
    <glyph glyph-name="umacron" unicode="&#x16b;" horiz-adv-x="526" 
d="M262 -16h1q-93 0 -147 54t-54 144v286h86v-284q0 -54 32 -89q31 -34 83 -34q50 0 81 34q32 35 32 88v284h86v-286q0 -89 -54 -143t-146 -54zM425 601v-1h-324v73h324v-73v1z" />
    <glyph glyph-name="Ubreve" unicode="&#x16c;" horiz-adv-x="685" 
d="M340 -17l2 1q-120 0 -194 72t-74 195v460h92v-456q0 -92 51 -137q50 -44 124 -44q79 0 129 47q48 48 48 134v456h92v-460q0 -122 -73 -195t-197 -73zM492 903v-1q-14 -62 -55 -99q-43 -38 -94 -38t-94 38q-42 38 -56 100h60q11 -33 36 -52q26 -20 54 -20q31 0 54 19
t36 52h59v1z" />
    <glyph glyph-name="ubreve" unicode="&#x16d;" horiz-adv-x="526" 
d="M262 -16h1q-93 0 -147 54t-54 144v286h86v-284q0 -54 32 -89q31 -34 83 -34q50 0 81 34q32 35 32 88v284h86v-286q0 -89 -54 -143t-146 -54zM412 707v-1q-14 -62 -55 -99q-43 -38 -94 -38t-94 38q-42 38 -56 100h60q11 -33 36 -52q26 -20 54 -20q31 0 54 19t36 52h59v1z
" />
    <glyph glyph-name="Uring" unicode="&#x16e;" horiz-adv-x="685" 
d="M340 -17l2 1q-120 0 -194 72t-74 195v460h92v-456q0 -92 51 -137q50 -44 124 -44q79 0 129 47q48 48 48 134v456h92v-460q0 -122 -73 -195t-197 -73zM343 962q43 0 75 -32q31 -31 31 -74q0 -44 -31 -75t-75 -31q-43 0 -74 31q-32 32 -32 75q0 42 32 74t74 32zM343 797v-1
q24 0 42 18t18 42t-18 42t-42 18t-42 -18t-18 -42t18 -42t42 -18v1z" />
    <glyph glyph-name="uring" unicode="&#x16f;" horiz-adv-x="526" 
d="M262 -16h1q-93 0 -147 54t-54 144v286h86v-284q0 -54 32 -89q31 -34 83 -34q50 0 81 34q32 35 32 88v284h86v-286q0 -89 -54 -143t-146 -54zM263 742q43 0 75 -32q31 -31 31 -74q0 -44 -31 -75t-75 -31q-43 0 -74 31q-32 32 -32 75q0 42 32 74t74 32zM263 577v-1
q24 0 42 18t18 42t-18 42t-42 18t-42 -18t-18 -42t18 -42t42 -18v1z" />
    <glyph glyph-name="Uhungarumlaut" unicode="&#x170;" horiz-adv-x="685" 
d="M340 -17l2 1q-120 0 -194 72t-74 195v460h92v-456q0 -92 51 -137q50 -44 124 -44q79 0 129 47q48 48 48 134v456h92v-460q0 -122 -73 -195t-197 -73zM589 897l-2 1l-142 -132l-38 34l116 154zM393 898h-1l-142 -132l-39 34l116 154l66 -57v1z" />
    <glyph glyph-name="uhungarumlaut" unicode="&#x171;" horiz-adv-x="526" 
d="M262 -16h1q-93 0 -147 54t-54 144v286h86v-284q0 -54 32 -89q31 -34 83 -34q50 0 81 34q32 35 32 88v284h86v-286q0 -89 -54 -143t-146 -54zM498 673l-2 1l-142 -132l-38 34l116 154zM303 674h-1l-142 -132l-39 34l116 154l66 -57v1z" />
    <glyph glyph-name="Uogonek" unicode="&#x172;" horiz-adv-x="685" 
d="M309 -14h2q-111 11 -174 82q-64 71 -64 184v460h92v-456q0 -86 48 -134t128 -48q79 0 128 47q48 48 48 134v456h92v-460q0 -107 -60 -181q-60 -72 -172 -84q-60 -52 -60 -92q0 -24 16 -36q17 -12 48 -12q33 0 48 5l-12 -56q-25 -5 -55 -5q-56 0 -82 22q-28 22 -28 66
q0 55 57 107v1z" />
    <glyph glyph-name="uogonek" unicode="&#x173;" horiz-adv-x="526" 
d="M232 -12v-2q-79 9 -124 61q-45 53 -45 135v286h86v-284q0 -54 32 -89q31 -34 83 -34q51 0 82 34q32 35 32 88v284h86v-286q0 -80 -44 -133q-43 -51 -120 -62q-61 -55 -61 -91q0 -24 16 -36q17 -12 48 -12q28 0 48 5l-12 -56q-23 -5 -55 -5q-56 0 -82 22q-28 22 -28 66
q0 54 58 108v1z" />
    <glyph glyph-name="Wcircumflex" unicode="&#x174;" horiz-adv-x="1002" 
d="M986 712h-1l-232 -712h-66q-182 530 -184 535l-188 -534h-66l-232 712h96q169 -519 173 -542l190 542h56q177 -499 188 -541l68 216l104 324h94zM659 815l-1 -1l-44 -48l-113 102l-112 -102l-43 48l156 142l157 -142v1z" />
    <glyph glyph-name="wcircumflex" unicode="&#x175;" horiz-adv-x="750" 
d="M747 468h-1l-192 -468h-50l-127 326l-130 -326h-50l-192 468h90l132 -331l131 331h46l127 -328l130 328h86zM533 590l-1 -1l-44 -48l-113 102l-112 -102l-43 48l156 142l157 -142v1z" />
    <glyph glyph-name="Ycircumflex" unicode="&#x176;" horiz-adv-x="616" 
d="M506 712h104l-255 -396v-316h-92v316l-256 396h108l197 -308zM465 815l-1 -1l-44 -48l-113 102l-112 -102l-43 48l156 142l157 -142v1z" />
    <glyph glyph-name="ycircumflex" unicode="&#x177;" horiz-adv-x="511" 
d="M508 468h-1l-318 -690h-89l114 248l-203 442h94l156 -348l157 348h90zM420 590l-1 -1l-44 -48l-113 102l-112 -102l-43 48l156 142l157 -142v1z" />
    <glyph glyph-name="Ydieresis" unicode="&#x178;" horiz-adv-x="616" 
d="M506 712h104l-255 -396v-316h-92v316l-256 396h108l197 -308zM411 884h-1q24 0 41 -18q17 -19 17 -42q0 -24 -17 -41t-41 -17t-41 17q-18 17 -18 41t18 42t42 18zM192 885v-1q24 0 41 -18q17 -19 17 -42q0 -24 -17 -41t-41 -17q-23 0 -42 17q-18 17 -18 41t18 42t42 18v1
z" />
    <glyph glyph-name="Zacute" unicode="&#x179;" horiz-adv-x="600" 
d="M593 711l1 1l-418 -626h383v-87h-549l421 626h-374v86h536zM445 898h-1l-142 -132l-39 34l116 154l66 -57v1z" />
    <glyph glyph-name="zacute" unicode="&#x17a;" horiz-adv-x="481" 
d="M42 468h422l-289 -391h261v-77h-420l290 391h-264v77zM372 674h-1l-142 -132l-39 34l116 154l66 -57v1z" />
    <glyph glyph-name="Zdotaccent" unicode="&#x17b;" horiz-adv-x="600" 
d="M593 711l1 1l-418 -626h383v-87h-549l421 626h-374v86h536zM320 897v-1q28 0 47 -19t19 -45t-19 -45t-47 -19q-26 0 -44 18q-18 20 -18 46q0 27 18 45q18 19 44 19v1z" />
    <glyph glyph-name="zdotaccent" unicode="&#x17c;" horiz-adv-x="481" 
d="M42 468h422l-289 -391h261v-77h-420l290 391h-264v77zM240 703v-1q28 0 47 -19t19 -45t-19 -45t-47 -19q-26 0 -44 18q-18 20 -18 46q0 27 18 45q18 19 44 19v1z" />
    <glyph glyph-name="Zcaron" unicode="&#x17d;" horiz-adv-x="600" 
d="M593 711l1 1l-418 -626h383v-87h-549l421 626h-374v86h536zM457 911v-1l-156 -142l-156 142l44 47l112 -101l113 101l43 -47v1z" />
    <glyph glyph-name="zcaron" unicode="&#x17e;" horiz-adv-x="481" 
d="M42 468h422l-289 -391h261v-77h-420l290 391h-264v77zM396 685v-1l-156 -142l-156 142l44 47l112 -101l113 101l43 -47v1z" />
    <glyph glyph-name="longs" unicode="&#x17f;" horiz-adv-x="280" 
d="M302 658l-2 -2q-30 11 -64 11q-32 0 -44 -19q-13 -19 -13 -65v-582h-86v584q0 80 34 120t102 40q45 0 73 -7v-81v1z" />
    <glyph glyph-name="florin" unicode="&#x192;" 
d="M471 719h-3l-14 -79q-24 10 -46 10q-27 0 -44 -20q-16 -19 -22 -62l-16 -100h94l-12 -70h-93l-75 -468q-10 -68 -53 -110q-42 -42 -104 -42q-25 0 -55 10l12 78q24 -10 46 -10q28 0 46 21q17 22 25 64l73 457h-58l11 70h60q18 120 24 143q6 24 27 54t52 46q29 16 68 16
q28 0 57 -9v1z" />
    <glyph glyph-name="uni01CE" unicode="&#x1ce;" horiz-adv-x="599" 
d="M285 64l-1 -2q66 0 114 50q47 50 47 124q0 72 -48 122t-114 50q-71 0 -115 -48q-45 -48 -45 -124q0 -75 44 -124q44 -48 118 -48zM445 -3l-1 3v72q-32 -41 -77 -64q-47 -24 -94 -24q-105 0 -173 72q-67 71 -67 179q0 102 69 174t171 72q47 0 94 -24t78 -66v74h86v-468
h-86zM434 685v-1l-156 -142l-156 142l44 47l112 -101l113 101l43 -47v1z" />
    <glyph glyph-name="uni01D0" unicode="&#x1d0;" horiz-adv-x="237" 
d="M162 468v-468h-86v468h86zM275 685v-1l-156 -142l-156 142l44 47l112 -101l113 101l43 -47v1z" />
    <glyph glyph-name="uni01D2" unicode="&#x1d2;" horiz-adv-x="569" 
d="M283 484h1q104 0 177 -73q72 -73 72 -176q0 -104 -73 -177q-74 -74 -177 -74t-177 74t-74 177q0 102 74 176q73 73 177 73zM284 61v1q69 0 116 50q46 49 46 122q0 72 -46 121q-47 50 -116 50q-68 0 -115 -50t-47 -122q0 -73 46 -122q47 -50 116 -50zM440 685v-1
l-156 -142l-156 142l44 47l112 -101l113 101l43 -47v1z" />
    <glyph glyph-name="uni01D4" unicode="&#x1d4;" horiz-adv-x="526" 
d="M262 -16h1q-93 0 -147 54t-54 144v286h86v-284q0 -54 32 -89q31 -34 83 -34q50 0 81 34q32 35 32 88v284h86v-286q0 -89 -54 -143t-146 -54zM419 685v-1l-156 -142l-156 142l44 47l112 -101l113 101l43 -47v1z" />
    <glyph glyph-name="uni01D6" unicode="&#x1d6;" horiz-adv-x="526" 
d="M262 -16h1q-93 0 -147 54t-54 144v286h86v-284q0 -54 32 -89q31 -34 83 -34q50 0 81 34q32 35 32 88v284h86v-286q0 -89 -54 -143t-146 -54zM373 696h-1q24 0 41 -18q17 -19 17 -42q0 -24 -17 -41t-41 -17t-41 17q-18 17 -18 41t18 42t42 18zM154 696q24 0 41 -18
q17 -19 17 -42q0 -24 -17 -41t-41 -17q-23 0 -42 17q-18 17 -18 41t18 42t42 18zM424 743v-1h-324v73h324v-73v1z" />
    <glyph glyph-name="uni01D8" unicode="&#x1d8;" horiz-adv-x="526" 
d="M262 -16h1q-93 0 -147 54t-54 144v286h86v-284q0 -54 32 -89q31 -34 83 -34q50 0 81 34q32 35 32 88v284h86v-286q0 -89 -54 -143t-146 -54zM373 696h-1q24 0 41 -18q17 -19 17 -42q0 -24 -17 -41t-41 -17t-41 17q-18 17 -18 41t18 42t42 18zM154 696q24 0 41 -18
q17 -19 17 -42q0 -24 -17 -41t-41 -17q-23 0 -42 17q-18 17 -18 41t18 42t42 18zM377 874h-1l-142 -132l-39 34l116 154l66 -57v1z" />
    <glyph glyph-name="uni01DA" unicode="&#x1da;" horiz-adv-x="526" 
d="M262 -16h1q-93 0 -147 54t-54 144v286h86v-284q0 -54 32 -89q31 -34 83 -34q50 0 81 34q32 35 32 88v284h86v-286q0 -89 -54 -143t-146 -54zM373 696h-1q24 0 41 -18q17 -19 17 -42q0 -24 -17 -41t-41 -17t-41 17q-18 17 -18 41t18 42t42 18zM154 696q24 0 41 -18
q17 -19 17 -42q0 -24 -17 -41t-41 -17q-23 0 -42 17q-18 17 -18 41t18 42t42 18zM419 886v-1l-156 -142l-156 142l44 47l112 -101l113 101l43 -47v1z" />
    <glyph glyph-name="uni01DC" unicode="&#x1dc;" horiz-adv-x="526" 
d="M262 -16h1q-93 0 -147 54t-54 144v286h86v-284q0 -54 32 -89q31 -34 83 -34q50 0 81 34q32 35 32 88v284h86v-286q0 -89 -54 -143t-146 -54zM373 696h-1q24 0 41 -18q17 -19 17 -42q0 -24 -17 -41t-41 -17t-41 17q-18 17 -18 41t18 42t42 18zM154 696q24 0 41 -18
q17 -19 17 -42q0 -24 -17 -41t-41 -17q-23 0 -42 17q-18 17 -18 41t18 42t42 18zM333 778l-1 -2l-39 -34l-142 132l66 57l116 -154v1z" />
    <glyph glyph-name="Aringacute" unicode="&#x1fa;" horiz-adv-x="685" 
d="M204 234h275l-139 326zM678 0h-3h-98l-64 152h-344l-64 -152h-94l286 677q-33 16 -50 43q-18 28 -18 63q0 47 34 81t82 34t82 -34t34 -81q0 -35 -19 -63q-21 -30 -53 -43zM342 712q28 0 49 21t21 50t-20 49q-21 21 -50 21q-30 0 -49 -21q-21 -20 -21 -49q0 -28 20 -50
q20 -21 50 -21zM456 1068h-1l-142 -132l-39 34l116 154l66 -57v1z" />
    <glyph glyph-name="aringacute" unicode="&#x1fb;" horiz-adv-x="599" 
d="M285 64l-1 -2q66 0 114 50q47 50 47 124q0 72 -48 122t-114 50q-71 0 -115 -48q-45 -48 -45 -124q0 -75 44 -124q44 -48 118 -48zM445 -3l-1 3v72q-32 -41 -77 -64q-47 -24 -94 -24q-105 0 -173 72q-67 71 -67 179q0 102 69 174t171 72q47 0 94 -24t78 -66v74h86v-468
h-86zM299 742q43 0 75 -32q31 -31 31 -74q0 -44 -31 -75t-75 -31q-43 0 -74 31q-32 32 -32 75q0 42 32 74t74 32zM299 576q24 0 42 18t18 42t-18 42t-42 18t-42 -18t-18 -42t18 -42t42 -18zM405 920h-1l-142 -132l-39 34l116 154l66 -57v1z" />
    <glyph glyph-name="AEacute" unicode="&#x1fc;" horiz-adv-x="997" 
d="M986 -1v1h-408l-68 170h-337l-68 -170h-94l292 712h386l36 -86h-306l92 -224h291l34 -86h-290l94 -230h312zM207 252h269l-135 330zM626 898h-1l-142 -132l-39 34l116 154l66 -57v1z" />
    <glyph glyph-name="aeacute" unicode="&#x1fd;" horiz-adv-x="844" 
d="M813 207v2h-372q5 -67 48 -108q43 -40 99 -40q83 0 138 76l72 -40q-74 -113 -209 -113q-110 0 -179 94q-78 -94 -192 -94q-84 0 -136 42t-52 114q0 73 52 113q53 41 134 41q77 0 137 -42v30q0 62 -32 94t-92 32q-61 0 -141 -34v78q68 30 146 30q118 0 172 -92
q68 92 184 92q97 0 160 -68q63 -67 63 -185v-22zM726 280h-1q-14 64 -49 96q-38 33 -87 33q-53 0 -96 -35q-42 -35 -51 -94h284zM237 58h-1q40 0 80 24t40 62q0 37 -35 60q-34 22 -90 22q-50 0 -79 -22q-31 -22 -31 -60t32 -62q31 -24 84 -24zM550 674h-1l-142 -132l-39 34
l116 154l66 -57v1z" />
    <glyph glyph-name="Oslashacute" unicode="&#x1fe;" horiz-adv-x="826" 
d="M799 693l1 -1l-100 -99q84 -103 84 -237q0 -100 -50 -186t-136 -136t-186 -50q-135 0 -238 85l-102 -102l-50 52l102 102q-83 104 -83 236q0 100 50 186q50 87 135 136q86 50 186 50q132 0 236 -84l100 100zM585 581l-1 -1q-73 60 -170 60q-116 0 -195 -82
q-80 -83 -80 -200q0 -95 54 -170zM239 134h1q74 -60 172 -60q116 0 195 82t79 200q0 94 -53 170zM541 898h-1l-142 -132l-39 34l116 154l66 -57v1z" />
    <glyph glyph-name="oslashacute" unicode="&#x1ff;" horiz-adv-x="569" 
d="M547 444l-2 2l-60 -60q50 -67 50 -151q0 -104 -73 -177q-74 -74 -177 -74q-86 0 -153 52l-62 -60l-46 46l62 60q-51 71 -51 152q0 102 74 176q73 73 177 73q87 0 154 -52l61 60zM381 373l-1 2q-41 30 -95 30q-68 0 -115 -50t-47 -122q0 -51 24 -92zM188 94l2 -1
q40 -30 94 -30q69 0 116 50q46 49 46 122q0 51 -24 91zM412 674h-1l-142 -132l-39 34l116 154l66 -57v1z" />
    <glyph glyph-name="Scommaaccent" unicode="&#x218;" horiz-adv-x="518" 
d="M255 -17l4 1q-61 0 -128 26q-64 25 -112 68l58 72q88 -79 183 -79q63 0 98 31q36 32 36 84q0 41 -31 69q-32 29 -111 59q-136 53 -172 104q-38 53 -38 120q0 81 66 135q64 54 162 54q106 0 201 -62l-46 -78q-83 53 -160 53q-57 0 -92 -28q-36 -28 -36 -73q0 -44 29 -73
q26 -26 98 -56q144 -58 183 -108q38 -50 38 -115q0 -93 -66 -148q-68 -56 -164 -56zM256 -151v1q-55 6 -55 53q0 23 18 39q17 17 43 17t44 -18t18 -44q0 -52 -58 -113h-50q27 30 40 65z" />
    <glyph glyph-name="scommaaccent" unicode="&#x219;" horiz-adv-x="399" 
d="M197 -18l1 2q-99 0 -180 60l47 66q65 -50 133 -50q42 0 61 16q20 17 20 48q0 21 -16 37q-17 17 -66 36q-107 43 -135 78q-28 34 -28 78q0 56 46 92q47 36 122 36q76 0 153 -40l-35 -73q-62 38 -120 38q-38 0 -58 -14t-20 -38q0 -20 20 -37q16 -14 82 -41q94 -38 119 -72
q26 -35 26 -78q0 -63 -47 -104q-46 -40 -125 -40zM196 -151v1q-55 6 -55 53q0 23 18 39q17 17 43 17t44 -18t18 -44q0 -52 -58 -113h-50q27 30 40 65z" />
    <glyph glyph-name="circumflex" unicode="&#x2c6;" horiz-adv-x="355" 
d="M335 590l-1 -1l-44 -48l-113 102l-112 -102l-43 48l156 142l157 -142v1z" />
    <glyph glyph-name="tilde" unicode="&#x2dc;" horiz-adv-x="355" 
d="M343 698l-2 -2q-7 -55 -34 -88q-27 -31 -65 -31q-30 0 -78 27q-37 20 -52 20q-26 0 -34 -47h-64q7 55 34 88q26 32 62 32q32 0 74 -24q40 -24 57 -24q25 0 36 48h66v1z" />
    <glyph glyph-name="Wgrave" unicode="&#x1e80;" horiz-adv-x="1002" 
d="M986 712h-1l-232 -712h-66q-182 530 -184 535l-188 -534h-66l-232 712h96q169 -519 173 -542l190 542h56q177 -499 188 -541l68 216l104 324h94zM554 808l-1 -2l-39 -34l-142 132l66 57l116 -154v1z" />
    <glyph glyph-name="wgrave" unicode="&#x1e81;" horiz-adv-x="750" 
d="M747 468h-1l-192 -468h-50l-127 326l-130 -326h-50l-192 468h90l132 -331l131 331h46l127 -328l130 328h86zM421 578l-1 -2l-39 -34l-142 132l66 57l116 -154v1z" />
    <glyph glyph-name="Wacute" unicode="&#x1e82;" horiz-adv-x="1002" 
d="M986 712h-1l-232 -712h-66q-182 530 -184 535l-188 -534h-66l-232 712h96q169 -519 173 -542l190 542h56q177 -499 188 -541l68 216l104 324h94zM640 904h-1l-142 -132l-39 34l116 154l66 -57v1z" />
    <glyph glyph-name="wacute" unicode="&#x1e83;" horiz-adv-x="750" 
d="M747 468h-1l-192 -468h-50l-127 326l-130 -326h-50l-192 468h90l132 -331l131 331h46l127 -328l130 328h86zM506 674h-1l-142 -132l-39 34l116 154l66 -57v1z" />
    <glyph glyph-name="Wdieresis" unicode="&#x1e84;" horiz-adv-x="1002" 
d="M986 712h-1l-232 -712h-66q-182 530 -184 535l-188 -534h-66l-232 712h96q169 -519 173 -542l190 542h56q177 -499 188 -541l68 216l104 324h94zM611 890h-1q24 0 41 -18q17 -19 17 -42q0 -24 -17 -41t-41 -17t-41 17q-18 17 -18 41t18 42t42 18zM392 891v-1q24 0 41 -18
q17 -19 17 -42q0 -24 -17 -41t-41 -17q-23 0 -42 17q-18 17 -18 41t18 42t42 18v1z" />
    <glyph glyph-name="wdieresis" unicode="&#x1e85;" horiz-adv-x="750" 
d="M747 468h-1l-192 -468h-50l-127 326l-130 -326h-50l-192 468h90l132 -331l131 331h46l127 -328l130 328h86zM485 696h-1q24 0 41 -18q17 -19 17 -42q0 -24 -17 -41t-41 -17t-41 17q-18 17 -18 41t18 42t42 18zM266 697v-1q24 0 41 -18q17 -19 17 -42q0 -24 -17 -41
t-41 -17q-23 0 -42 17q-18 17 -18 41t18 42t42 18v1z" />
    <glyph glyph-name="Ygrave" unicode="&#x1ef2;" horiz-adv-x="616" 
d="M506 712h104l-255 -396v-316h-92v316l-256 396h108l197 -308zM359 808l-1 -2l-39 -34l-142 132l66 57l116 -154v1z" />
    <glyph glyph-name="ygrave" unicode="&#x1ef3;" horiz-adv-x="511" 
d="M508 468h-1l-318 -690h-89l114 248l-203 442h94l156 -348l157 348h90zM329 578l-1 -2l-39 -34l-142 132l66 57l116 -154v1z" />
    <glyph glyph-name="endash" unicode="&#x2013;" horiz-adv-x="512" 
d="M518 218v-1h-524v79h524v-79v1z" />
    <glyph glyph-name="emdash" unicode="&#x2014;" horiz-adv-x="1024" 
d="M1030 218v-1h-1036v79h1036v-79v1z" />
    <glyph glyph-name="afii00208" unicode="&#x2015;" horiz-adv-x="768" 
d="M774 218v-1h-780v79h780v-79v1z" />
    <glyph glyph-name="underscoredbl" unicode="&#x2017;" horiz-adv-x="512" 
d="M518 -77v-51h-524v51h524zM518 -229v-1h-524v52h524v-52v1z" />
    <glyph glyph-name="quoteleft" unicode="&#x2018;" horiz-adv-x="236" 
d="M185 722l-3 -2q-41 -68 -51 -103q48 -13 48 -58q0 -24 -18 -42t-42 -18t-42 18t-18 42q0 59 76 162h50v1z" />
    <glyph glyph-name="quoteright" unicode="&#x2019;" horiz-adv-x="236" 
d="M106 608h4q-48 14 -48 58q0 24 18 42t42 18t42 -18t18 -42q0 -58 -76 -161h-50q39 63 50 102v1z" />
    <glyph glyph-name="quotesinglbase" unicode="&#x201a;" horiz-adv-x="236" 
d="M101 -14h3q-48 13 -48 58q0 24 18 42t42 18t42 -18t18 -42q0 -58 -76 -161h-50q40 66 51 102v1z" />
    <glyph glyph-name="quotereversed" unicode="&#x201b;" horiz-adv-x="236" 
d="M180 498h2h-50q-76 101 -76 160q0 24 18 42t42 18t42 -18t18 -42q0 -46 -48 -58q12 -38 52 -103v1z" />
    <glyph glyph-name="quotedblleft" unicode="&#x201c;" horiz-adv-x="411" 
d="M361 721l-3 -1q-41 -68 -51 -103q48 -13 48 -58q0 -24 -18 -42t-42 -18t-42 18t-18 42q0 59 76 162h50zM185 722l-3 -2q-41 -68 -51 -103q48 -13 48 -58q0 -24 -18 -42t-42 -18t-42 18t-18 42q0 59 76 162h50v1z" />
    <glyph glyph-name="quotedblright" unicode="&#x201d;" horiz-adv-x="411" 
d="M276 607l4 1q-48 14 -48 58q0 24 18 42t42 18t42 -18t18 -42q0 -58 -76 -161h-50q39 63 50 102zM102 608h2q-48 14 -48 58q0 24 18 42t43 18q24 0 42 -18t18 -42q0 -58 -76 -161h-50q41 66 51 102v1z" />
    <glyph glyph-name="quotedblbase" unicode="&#x201e;" horiz-adv-x="411" 
d="M276 -15l4 1q-48 14 -48 58q0 24 18 42t42 18t42 -18t18 -42q0 -58 -76 -161h-50q39 63 50 102zM101 -14h3q-48 13 -48 58q0 24 18 42t42 18t42 -18t18 -42q0 -58 -76 -161h-50q40 66 51 102v1z" />
    <glyph glyph-name="dagger" unicode="&#x2020;" horiz-adv-x="553" 
d="M502 399v-1h-184v-620h-83v620h-184v74h184v257h83v-257h184v-74v1z" />
    <glyph glyph-name="daggerdbl" unicode="&#x2021;" horiz-adv-x="553" 
d="M502 33v-1h-184v-254h-83v254h-184v74h184v292h-184v74h184v257h83v-257h184v-74h-184v-292h184v-74v1z" />
    <glyph glyph-name="bullet" unicode="&#x2022;" horiz-adv-x="365" 
d="M182 493v-1q56 0 96 -40t40 -96t-40 -96t-96 -40t-96 40t-40 96t40 96t96 40v1z" />
    <glyph glyph-name="ellipsis" unicode="&#x2026;" horiz-adv-x="975" 
d="M857 106q24 0 42 -18t18 -42t-18 -42t-42 -18t-42 18t-18 42t18 42t42 18zM488 106q24 0 42 -18t18 -42t-18 -42t-42 -18t-42 18t-18 42t18 42t42 18zM118 107v-1q24 0 42 -18t18 -42t-18 -42t-42 -18q-25 0 -43 18t-18 42t18 42t43 18v1z" />
    <glyph glyph-name="perthousand" unicode="&#x2030;" horiz-adv-x="1243" 
d="M660 697v-1l-420 -711l-56 34l418 710zM204 728q74 0 122 -48t48 -120t-48 -120t-122 -48t-122 48t-48 120t48 120t122 48zM205 454h-1q44 0 70 29q26 31 26 77t-26 75t-69 29q-44 0 -70 -29t-26 -75q0 -45 26 -76q26 -30 70 -30zM1040 322q74 0 122 -48t48 -120
t-48 -120t-122 -48t-122 48t-48 120t48 120t122 48zM1042 48h-2q44 0 70 29q26 31 26 77t-26 75t-69 29q-44 0 -70 -29t-26 -75q0 -45 26 -76q26 -30 71 -30zM641 322q74 0 122 -48t48 -120t-48 -120t-122 -48t-122 48t-48 120t48 120t122 48zM642 49l-1 -1q44 0 70 29
q26 31 26 77t-26 75t-70 29t-70 -29t-26 -75q0 -45 26 -76q25 -30 71 -30v1z" />
    <glyph glyph-name="minute" unicode="&#x2032;" horiz-adv-x="192" 
d="M200 734l-1 -1l-26 -122l-52 -137h-56l6 137l26 122h103v1z" />
    <glyph glyph-name="second" unicode="&#x2033;" horiz-adv-x="363" 
d="M341 733h-1l-26 -122l-52 -137h-56l6 137l26 122h103zM200 734l-1 -1l-26 -122l-52 -137h-56l6 137l26 122h103v1z" />
    <glyph glyph-name="guilsinglleft" unicode="&#x2039;" horiz-adv-x="270" 
d="M254 99v-1l-66 -43l-162 214l162 214l66 -43l-129 -171l129 -171v1z" />
    <glyph glyph-name="guilsinglright" unicode="&#x203a;" horiz-adv-x="270" 
d="M16 441v-1l66 43l162 -214l-162 -214l-66 43l129 171l-129 171v1z" />
    <glyph glyph-name="exclamdbl" unicode="&#x203c;" horiz-adv-x="433" 
d="M256 728h100l-12 -552h-75zM78 728h100l-12 -552h-75zM303 -15h2q-24 0 -43 17q-18 18 -18 42t18 42t42 18t42 -18t18 -42t-18 -42q-19 -17 -43 -17zM126 -15l2 -1q-25 0 -43 18t-18 42t18 42t42 18t42 -18t18 -42t-18 -42t-43 -18v1z" />
    <glyph glyph-name="uni203E" unicode="&#x203e;" horiz-adv-x="512" 
d="M518 791v-1h-524v51h524v-51v1z" />
    <glyph glyph-name="fraction" unicode="&#x2044;" horiz-adv-x="108" 
d="M286 699v-1l-416 -714l-50 30l416 714l50 -30v1z" />
    <glyph glyph-name="franc" unicode="&#x20a3;" horiz-adv-x="510" 
d="M488 627v-1h-316v-204h293v-86h-293v-122h152v-79h-152v-136h-92v136h-66v79h66v498h408v-86v1z" />
    <glyph glyph-name="lira" unicode="&#x20a4;" 
d="M573 112h1q-22 -64 -60 -96t-92 -32q-16 0 -33 4l-37 9q-31 11 -70 28q-49 18 -54 16q-24 9 -42 9q-44 0 -74 -66l-78 16q19 61 53 97q31 34 77 39q12 27 12 65v12h-114v72h102q-7 24 -14 43h-88v73h64q-26 84 -26 127q0 88 60 144q59 56 157 56q91 0 146 -45
q55 -43 60 -120h-96q-3 40 -33 62q-31 23 -78 23q-54 0 -88 -34t-34 -90q0 -43 26 -124h180v-73h-160q1 -4 2.5 -10.5t4 -16t4.5 -16.5h148v-72h-138v-12q0 -42 -12 -73q97 -37 125 -44q32 -8 47 -8q51 0 75 54l77 -18v1z" />
    <glyph glyph-name="peseta" unicode="&#x20a7;" horiz-adv-x="1167" 
d="M963 -18l3 2q-99 0 -180 60l47 66q62 -50 133 -50q42 0 61 16q20 17 20 48q0 21 -16 37q-17 17 -66 36q-105 42 -133 76q-29 35 -29 78q0 57 46 93q47 36 122 36t152 -40l-35 -73q-62 38 -120 38q-41 0 -60 -13q-20 -14 -20 -39q0 -20 20 -37q18 -16 81 -40
q95 -38 120 -72q26 -35 26 -78q0 -64 -47 -105q-46 -39 -125 -39zM171 276l1 -2v-274h-92v712h192q116 0 180 -58t64 -156t-65 -160q-67 -62 -178 -62h-102zM172 629v-1v-268h98q69 0 112 38q42 38 42 100q0 60 -41 95q-42 36 -113 36h-98zM777 395v-1h-74v-394h-86v394h-74
v74h74v158h86v-158h74v-74v1z" />
    <glyph glyph-name="Euro" unicode="&#x20ac;" 
d="M560 29l1 1q-73 -46 -189 -46q-109 0 -192 70q-85 71 -116 190h-58l16 71h30l-2 41l2 40h-46l16 70h42q31 120 116 191q83 70 191 70q114 0 191 -47v-102q-84 60 -190 60q-68 0 -127 -48q-60 -48 -84 -127h340l-16 -70h-338q-2 -16 -2 -40q0 -21 3 -41h324l-16 -71h-296
q23 -78 83 -125q58 -46 128 -46q113 0 189 60v-102v1z" />
    <glyph glyph-name="afii61248" unicode="&#x2105;" horiz-adv-x="831" 
d="M599 730l50 -30l-416 -714l-50 30zM295 440v-3q-38 -18 -92 -18q-75 0 -122 45q-46 46 -46 110q0 62 48 109q46 46 121 46q48 0 91 -20v-60q-41 24 -90 24q-53 0 -78 -24q-26 -24 -26 -73q0 -42 27 -70t77 -28q43 0 90 24v-62zM639 -14q-65 0 -112 45q-46 46 -46 110
t46 109q47 45 112 45q66 0 111 -45q44 -44 44 -109q0 -64 -44 -110q-45 -45 -111 -45zM637 241l2 -1q-41 0 -66 -28q-26 -29 -26 -70t26 -70q25 -28 65 -28t65 28q26 29 26 70t-26 70q-25 28 -66 28v1z" />
    <glyph glyph-name="afii61289" unicode="&#x2113;" horiz-adv-x="331" 
d="M181 328l-1 4v-208q0 -44 8 -55t21 -11q11 0 30 8q15 6 70 44v-81q-56 -44 -113 -44q-50 0 -74 30q-25 29 -25 90v112l-40 -49l-49 39l88 118v228q0 114 31 151q30 38 86 38q50 0 80 -34q30 -33 30 -86q0 -46 -30 -113q-30 -68 -112 -181zM179 451l1 -1q51 88 62 117
q11 33 11 59q0 28 -10 44t-28 16q-14 0 -21 -10q-8 -10 -11 -37q-4 -25 -4 -75v-114v1z" />
    <glyph glyph-name="afii61352" unicode="&#x2116;" horiz-adv-x="1097" 
d="M613 0h-1h-66l-377 540v-540h-89v712h66l378 -540v540h89v-712zM886 300q-70 0 -121 48t-51 117t51 118q50 49 121 49t120 -49q49 -48 49 -118q0 -69 -49 -117q-50 -48 -120 -48zM887 563l-1 -1q-39 0 -64 -28q-26 -29 -26 -68t26 -68q25 -28 65 -28q38 0 62 27t24 69
t-24 69q-24 28 -62 28zM1044 138v-1h-318v78h318v-78v1z" />
    <glyph glyph-name="trademark" unicode="&#x2122;" horiz-adv-x="853" 
d="M823 320h-1h-69l-43 280l-99 -280h-44l-104 278l-41 -278h-66l55 393h71l108 -274l102 274h71zM339 651l-1 -1h-110v-330h-68v330h-112v62h291v-62v1z" />
    <glyph glyph-name="Omega" unicode="&#x2126;" horiz-adv-x="836" 
d="M790 1l-2 -1h-274v84q76 28 127 108q50 80 50 174q0 116 -78 194t-196 78t-196 -78t-78 -194q0 -94 51 -174q50 -80 126 -108v-84h-274v87l152 -5q-152 113 -152 284q0 151 108 256q107 106 264 106t264 -106q108 -105 108 -256q0 -171 -152 -284l152 5v-87v1z" />
    <glyph glyph-name="estimated" unicode="&#x212e;" horiz-adv-x="615" 
d="M161 266h-1v-186q64 -60 149 -60q127 0 197 123l36 -22q-50 -71 -102 -105t-132 -34q-117 0 -191 80q-73 79 -73 202q0 124 74 204t192 80q106 0 183 -71q76 -70 82 -211h-414zM458 301v1v148q-64 60 -150 60q-88 0 -148 -61v-148h298z" />
    <glyph glyph-name="oneeighth" unicode="&#x215b;" horiz-adv-x="841" 
d="M196 720v-426h-77v354h-94l33 72h138zM561 728l50 -30l-416 -714l-50 30zM718 220l4 -1q43 -17 63 -44q21 -29 21 -66q0 -56 -46 -90t-114 -34t-114 34t-46 90q0 40 22 68q20 28 63 43q-37 17 -54 40q-18 24 -18 56q0 48 41 80q40 33 103 33q65 0 105 -30t40 -83
q0 -32 -18 -56t-52 -40zM645 244l1 1q33 0 52 16q20 17 20 44q0 30 -18 45q-17 16 -54 16t-54 -16q-18 -15 -18 -45q0 -27 20 -44t51 -17zM645 47l1 -2q40 0 60 17q20 18 20 53q0 31 -22 50q-23 20 -60 20q-36 0 -58 -18t-22 -51q0 -34 23 -52q22 -18 58 -18v1z" />
    <glyph glyph-name="threeeighths" unicode="&#x215c;" horiz-adv-x="841" 
d="M256 514l-1 1q33 -12 52 -41q18 -28 18 -64q0 -52 -40 -88q-41 -36 -116 -36q-62 0 -102 31q-39 31 -50 85h74q6 -27 28 -40q22 -14 50 -14q35 0 57 18t22 48q0 32 -23 52q-23 21 -67 21h-19v54h18q39 0 62 20q22 19 22 52q0 27 -18 40q-19 14 -46 14q-25 0 -45 -14
q-19 -13 -24 -40h-74q8 54 48 84t96 30q65 0 102 -34q38 -35 38 -83q0 -70 -62 -96zM601 728l50 -30l-416 -714l-50 30zM718 220l4 -1q43 -17 63 -44q21 -29 21 -66q0 -56 -46 -90t-114 -34t-114 34t-46 90q0 40 22 68q20 28 63 43q-37 17 -54 40q-18 24 -18 56q0 48 41 80
q40 33 103 33q65 0 105 -30t40 -83q0 -32 -18 -56t-52 -40zM645 244l1 1q33 0 52 16q20 17 20 44q0 30 -18 45q-17 16 -54 16t-54 -16q-18 -15 -18 -45q0 -27 20 -44t51 -17zM645 47l1 -2q40 0 60 17q20 18 20 53q0 31 -22 50q-23 20 -60 20q-36 0 -58 -18t-22 -51
q0 -34 23 -52q22 -18 58 -18v1z" />
    <glyph glyph-name="fiveeighths" unicode="&#x215d;" horiz-adv-x="841" 
d="M144 574h4q37 8 50 8q71 0 114 -40q44 -41 44 -108q0 -60 -45 -105t-128 -45q-85 0 -158 60l39 49q67 -52 118 -52q46 0 75 26q29 27 29 67q0 39 -28 64q-29 26 -66 26q-62 0 -124 -27l32 224h238v-71h-184zM609 728l50 -30l-416 -714l-50 30zM718 220l4 -1
q43 -17 63 -44q21 -29 21 -66q0 -56 -46 -90t-114 -34t-114 34t-46 90q0 40 22 68q20 28 63 43q-37 17 -54 40q-18 24 -18 56q0 48 41 80q40 33 103 33q65 0 105 -30t40 -83q0 -32 -18 -56t-52 -40zM645 244l1 1q33 0 52 16q20 17 20 44q0 30 -18 45q-17 16 -54 16t-54 -16
q-18 -15 -18 -45q0 -27 20 -44t51 -17zM645 47l1 -2q40 0 60 17q20 18 20 53q0 31 -22 50q-23 20 -60 20q-36 0 -58 -18t-22 -51q0 -34 23 -52q22 -18 58 -18v1z" />
    <glyph glyph-name="seveneighths" unicode="&#x215e;" horiz-adv-x="841" 
d="M48 719h336l-232 -427h-85l192 358h-211v69zM576 728l50 -30l-416 -714l-50 30zM718 220l4 -1q43 -17 63 -44q21 -29 21 -66q0 -56 -46 -90t-114 -34t-114 34t-46 90q0 40 22 68q20 28 63 43q-37 17 -54 40q-18 24 -18 56q0 48 41 80q40 33 103 33q65 0 105 -30t40 -83
q0 -32 -18 -56t-52 -40zM645 244l1 1q33 0 52 16q20 17 20 44q0 30 -18 45q-17 16 -54 16t-54 -16q-18 -15 -18 -45q0 -27 20 -44t51 -17zM645 47l1 -2q40 0 60 17q20 18 20 53q0 31 -22 50q-23 20 -60 20q-36 0 -58 -18t-22 -51q0 -34 23 -52q22 -18 58 -18v1z" />
  </font>
</defs>
</svg>
